<?xml version="1.0" encoding="UTF-8"?>
<svg version="1.1" xmlns="http://www.w3.org/2000/svg" width="5000" height="4000">
<path d="M0 0 C1650 0 3300 0 5000 0 C5000 1320 5000 2640 5000 4000 C3350 4000 1700 4000 0 4000 C0 2680 0 1360 0 0 Z " fill="#181713" transform="translate(0,0)"/>
<path d="M0 0 C7.25563035 1.29220029 14.02598064 3.60538578 20.9375 6.125 C22.03852051 6.52533447 23.13954102 6.92566895 24.27392578 7.33813477 C68.1447552 23.50157599 105.25275162 48.82437192 138 82 C138.66 82.66 139.32 83.32 140 84 C140.91089557 85.17598592 141.80470051 86.36527877 142.6875 87.5625 C145.01377197 90.68896381 147.36505646 93.79299572 149.75 96.875 C150.32234375 97.61492187 150.8946875 98.35484375 151.484375 99.1171875 C153.01074624 101.0823601 153.01074624 101.0823601 155 103 C156.47524109 105.48130715 157.80999212 108.02677354 159.16796875 110.57421875 C160.45968932 112.98965358 161.77136846 115.38263184 163.11328125 117.76953125 C177.01565302 142.79805286 185.07780492 170.73097564 189 199 C189.17732666 200.17377197 189.35465332 201.34754395 189.53735352 202.55688477 C191.23733721 214.55161061 191.33881658 226.50964008 191.31567383 238.6081543 C191.31252736 242.03271776 191.33601276 245.45640273 191.36132812 248.88085938 C191.39400347 261.21408386 190.79674174 273.18978111 188.9634552 285.39772034 C188.82622543 286.3253569 188.68899567 287.25299347 188.54760742 288.20874023 C188.41867599 289.01657455 188.28974457 289.82440887 188.15690613 290.65672302 C187.86479243 295.01922499 188.88517229 298.26538428 191.29296875 301.85546875 C191.75582275 302.55599365 192.21867676 303.25651855 192.69555664 303.97827148 C193.4340686 305.0718396 193.4340686 305.0718396 194.1875 306.1875 C195.19143137 307.7022462 196.19404272 309.21786813 197.1953125 310.734375 C197.6790332 311.46462891 198.16275391 312.19488281 198.66113281 312.94726562 C200.8494121 316.30230798 202.87477411 319.74775461 204.87890625 323.21484375 C206.0022777 325.15078013 206.0022777 325.15078013 208 327 C208.33 327.99 208.66 328.98 209 330 C209.66 330.66 210.32 331.32 211 332 C211.82633797 333.41785328 212.61067302 334.86027873 213.375 336.3125 C216.97247263 343.02778224 220.77702026 349.61944754 224.59716797 356.21020508 C234 372.54200331 234 372.54200331 234 376 C234.66 376.33 235.32 376.66 236 377 C236.66666667 379.33333333 237.33333333 381.66666667 238 384 C238.66 384.33 239.32 384.66 240 385 C240.91040039 386.55615234 240.91040039 386.55615234 241.84765625 388.5859375 C242.37806519 389.72131958 242.37806519 389.72131958 242.91918945 390.87963867 C243.29648193 391.70310791 243.67377441 392.52657715 244.0625 393.375 C244.86964604 395.10814074 245.67694212 396.84121162 246.484375 398.57421875 C246.89880859 399.46931152 247.31324219 400.3644043 247.74023438 401.28662109 C249.74174062 405.59761729 251.77714881 409.89240797 253.8125 414.1875 C254.3530603 415.33387939 254.3530603 415.33387939 254.90454102 416.50341797 C256.6056468 420.10292782 258.33519627 423.68197263 260.1328125 427.234375 C261.58926736 430.13047811 262.8951425 433.03545609 264.0625 436.0625 C265.09044426 438.71397853 266.14606558 441.33285246 267.2890625 443.9375 C269.83895271 449.85321338 272.0399028 455.91145441 274.3125 461.9375 C274.80720191 463.2464532 275.30199402 464.55537231 275.796875 465.86425781 C276.76480884 468.42525191 277.73173069 470.98662446 278.69775391 473.54833984 C279.77916271 476.41466113 280.86329159 479.27992014 281.94921875 482.14453125 C282.46633468 483.51294948 282.98328311 484.88143104 283.5 486.25 C284.13421875 487.92835938 284.13421875 487.92835938 284.78125 489.640625 C286.26695398 493.7358347 287.63787074 497.8623622 289 502 C289.30373535 502.91120605 289.6074707 503.82241211 289.92041016 504.76123047 C295.34658421 521.0825838 300.20111805 537.50027167 304.72485352 554.09106445 C304.92889801 554.83851425 305.1329425 555.58596405 305.34317017 556.35606384 C305.72355404 557.75240708 306.10217112 559.14923343 306.47860718 560.54664612 C307.52856125 564.41292471 308.73276095 568.2006197 310 572 C310.32602235 573.30455317 310.62745068 574.61571002 310.89453125 575.93359375 C311.04277344 576.65256836 311.19101563 577.37154297 311.34375 578.11230469 C311.4984375 578.87961914 311.653125 579.64693359 311.8125 580.4375 C312.16183598 582.13951292 312.51213885 583.8413276 312.86328125 585.54296875 C313.04713379 586.43419434 313.23098633 587.32541992 313.42041016 588.24365234 C314.00368091 591.01750524 314.61235069 593.78449723 315.23046875 596.55078125 C318.73895778 612.2644197 321.58541014 628.03248025 324.1015625 643.93359375 C324.28323975 645.08102051 324.46491699 646.22844727 324.65209961 647.41064453 C325.00319841 649.64147474 325.35050035 651.87290654 325.69360352 654.10498047 C325.85014404 655.10803223 326.00668457 656.11108398 326.16796875 657.14453125 C326.30485107 658.03503174 326.4417334 658.92553223 326.58276367 659.84301758 C326.90702489 662.03839113 326.90702489 662.03839113 328 664 C328.18934784 665.80988238 328.32709199 667.62524021 328.44140625 669.44140625 C328.82997864 674.96246699 329.32712642 680.46021156 329.90234375 685.96484375 C329.98553864 686.77015533 330.06873352 687.57546692 330.15444946 688.40518188 C330.49771523 691.72420362 330.8424408 695.04304252 331.19506836 698.36108398 C331.85255726 704.56930854 332.45012568 710.78131305 333 717 C333.09287292 718.04605408 333.18574585 719.09210815 333.28143311 720.16986084 C335.10296705 741.50185619 335.31345865 762.75549107 335.26074219 784.15087891 C335.24931502 788.82530495 335.25615529 793.4995041 335.26761436 798.17392254 C335.30942777 818.21431541 335.05044192 838.04555994 333 858 C332.81993402 859.84127162 332.64024123 861.68257978 332.4609375 863.52392578 C331.95903553 868.58141616 331.42225199 873.63474156 330.875 878.6875 C330.51400527 882.02430524 330.15792447 885.36158439 329.8046875 888.69921875 C329.72346649 889.43460373 329.64224548 890.16998871 329.55856323 890.92765808 C329.20243066 894.29591424 329.00174773 897.5664396 329.01220703 900.95629883 C329 904 329 904 328 905 C327.57726518 907.33416459 327.20905915 909.65703233 326.87109375 912.00390625 C326.64310481 913.52522551 326.41456217 915.04646186 326.18554688 916.56762695 C326.06429443 917.37994781 325.94304199 918.19226868 325.81811523 919.02920532 C322.59202259 940.50139713 318.53179895 961.76774081 314 983 C313.75846191 984.13518066 313.51692383 985.27036133 313.26806641 986.43994141 C309.03931282 1005.92500361 303.29738983 1025.06663642 297.828125 1044.23046875 C297.57312729 1045.12629166 297.31812958 1046.02211456 297.05540466 1046.94508362 C295.79777766 1051.33317827 294.47473701 1055.67864842 293 1060 C292.59965893 1061.41539941 292.20374649 1062.83205971 291.8125 1064.25 C288.7202808 1074.64111222 284.41439981 1084.71603013 280.1875 1094.6875 C278.47378315 1098.74366748 277.17943282 1102.75404183 276 1107 C274.74581037 1110.36619763 273.37381056 1113.68113807 272 1117 C271.39091797 1118.49853516 271.39091797 1118.49853516 270.76953125 1120.02734375 C268.66653221 1125.15866142 266.51759753 1130.19698843 263.89453125 1135.0859375 C262.89794421 1137.12122673 262.89794421 1137.12122673 262.05078125 1139.86328125 C261.00955919 1142.97146457 259.76680752 1145.84616162 258.375 1148.8125 C257.84390625 1149.946875 257.3128125 1151.08125 256.765625 1152.25 C256.48009766 1152.85585937 256.19457031 1153.46171875 255.90039062 1154.0859375 C254.96445781 1156.07555606 254.03640713 1158.06872011 253.109375 1160.0625 C248.89047616 1169.11288766 244.51382642 1178.07209804 240.01318359 1186.98535156 C238.96614686 1189.06731473 237.92907321 1191.15398965 236.89453125 1193.2421875 C233.41822224 1200.25313558 229.88505229 1207.2044509 226 1214 C222.603819 1220.03282229 222.603819 1220.03282229 219.4375 1226.1875 C217.84355037 1229.30609711 215.94844035 1232.08980664 214 1235 C212.78184528 1236.95223922 211.57388546 1238.9108685 210.375 1240.875 C206.03095604 1247.96350538 201.62689385 1255.01350017 197.21484375 1262.05981445 C195.90990571 1264.14388652 194.60499987 1266.22797761 193.30078125 1268.3125 C192.89899658 1268.95445313 192.49721191 1269.59640625 192.08325195 1270.2578125 C190.22700309 1273.24320621 188.4227044 1276.25523511 186.6875 1279.3125 C184.9055087 1282.15048615 182.9559715 1284.7749778 180.9296875 1287.44140625 C177.00999877 1292.63856439 173.18659038 1297.90765628 169.34423828 1303.16210938 C168.11466666 1304.84322364 166.88358274 1306.52323153 165.65234375 1308.203125 C164.96269531 1309.14671875 164.27304688 1310.0903125 163.5625 1311.0625 C162.96566406 1311.87847656 162.36882812 1312.69445313 161.75390625 1313.53515625 C160.49300902 1315.30715214 159.27654369 1317.11107502 158.08984375 1318.93359375 C155.17002043 1323.21782048 151.80158521 1327.06155878 148.4375 1331 C146.08371127 1333.89697075 144.06772733 1336.8963204 142 1340 C140.7183002 1341.50593356 139.40657446 1342.9869642 138.0625 1344.4375 C135.21158924 1347.58296981 132.68216285 1350.7562721 130.27734375 1354.24609375 C126.36700206 1359.61533968 121.68473487 1364.31526513 117 1369 C116.09620164 1370.09765656 115.20041658 1371.2019571 114.3125 1372.3125 C113.549375 1373.199375 112.78625 1374.08625 112 1375 C111.34 1375 110.68 1375 110 1375 C109.7628125 1375.74121094 109.525625 1376.48242188 109.28125 1377.24609375 C107.80104601 1380.42762976 106.2026549 1381.85562433 103.5 1384.0625 C100.40437975 1386.60030556 98.7511289 1388.45748636 97 1392 C95.44512328 1393.69247643 93.83470774 1395.33474465 92.1875 1396.9375 C91.33542969 1397.77152344 90.48335937 1398.60554688 89.60546875 1399.46484375 C88.74566406 1400.30144531 87.88585938 1401.13804688 87 1402 C86.14019531 1402.86753906 85.28039063 1403.73507812 84.39453125 1404.62890625 C81.97487815 1407.02487596 79.46047902 1409.20262119 76.84375 1411.375 C72.72941117 1415.00119693 69.03869514 1419.02163573 65.34326172 1423.06396484 C59.71106549 1429.20512339 53.93220446 1435.15132232 47.875 1440.875 C47.24803223 1441.47562256 46.62106445 1442.07624512 45.97509766 1442.69506836 C45.3826123 1443.24686768 44.79012695 1443.79866699 44.1796875 1444.3671875 C43.66132324 1444.85300293 43.14295898 1445.33881836 42.60888672 1445.83935547 C40.77015744 1447.16580752 39.18179807 1447.47123482 37 1448 C35.89163577 1449.88316159 35.89163577 1449.88316159 35 1452 C33.5625 1453.75 33.5625 1453.75 32 1455 C31.01 1455 30.02 1455 29 1455 C28.7628125 1455.57234375 28.525625 1456.1446875 28.28125 1456.734375 C26.72406762 1459.4879292 24.87507203 1461.16795634 22.5 1463.25 C21.7059375 1463.95640625 20.911875 1464.6628125 20.09375 1465.390625 C18 1467 18 1467 16 1467 C14.87452809 1468.39831359 13.74981583 1469.79724528 12.62890625 1471.19921875 C9.54166579 1474.6122112 5.88558838 1477.54058263 2 1480 C1.01 1480 0.02 1480 -1 1480 C-1.26167969 1480.60585937 -1.52335937 1481.21171875 -1.79296875 1481.8359375 C-3.09691208 1484.17375175 -4.13778429 1485.10689011 -6.3125 1486.625 C-9.51140032 1488.91657586 -12.64887869 1491.2651335 -15.75170898 1493.68579102 C-20.67315443 1497.52245153 -25.65117732 1501.180051 -30.890625 1504.57421875 C-33.17954673 1506.12136029 -35.33376947 1507.78568998 -37.5 1509.5 C-41.84507187 1512.92952996 -46.36628423 1515.97768859 -51 1519 C-52.93874189 1520.28980189 -54.87616445 1521.58158836 -56.8125 1522.875 C-59.95621128 1524.97348758 -63.10242061 1527.06754357 -66.2578125 1529.1484375 C-67.30710937 1529.84195313 -68.35640625 1530.53546875 -69.4375 1531.25 C-70.38496094 1531.87390625 -71.33242187 1532.4978125 -72.30859375 1533.140625 C-75.0331293 1534.96371324 -75.0331293 1534.96371324 -77.53515625 1537.109375 C-79.99502369 1538.99618299 -82.12073475 1539.9145262 -85 1541 C-86.40046338 1541.8772714 -87.77577797 1542.79579735 -89.125 1543.75 C-93.27754369 1546.58221266 -97.54976488 1549.00001425 -101.98046875 1551.3671875 C-105.35222382 1553.19046515 -108.67815938 1555.08799984 -112 1557 C-117.16256681 1559.96671755 -122.36252604 1562.85474979 -127.59765625 1565.69140625 C-131.50776915 1567.82130515 -135.39277133 1569.9904051 -139.1640625 1572.359375 C-142.84388594 1574.48819848 -146.6494993 1576.2657054 -150.5 1578.0625 C-152.19805865 1578.86037498 -153.8959698 1579.65856394 -155.59375 1580.45703125 C-156.47675781 1580.87162598 -157.35976562 1581.2862207 -158.26953125 1581.71337891 C-161.94613078 1583.44582522 -165.61317886 1585.19798511 -169.28027344 1586.95043945 C-177.98859647 1591.11151697 -186.70246633 1595.24724372 -195.546875 1599.11328125 C-196.35640625 1599.46777344 -197.1659375 1599.82226562 -198 1600.1875 C-199.051875 1600.64189453 -199.051875 1600.64189453 -200.125 1601.10546875 C-202.25427263 1602.066692 -202.25427263 1602.066692 -205 1604 C-206.32687584 1604.35817507 -207.66112325 1604.6896809 -209 1605 C-210.48845809 1605.55919972 -211.9670753 1606.14496859 -213.4375 1606.75 C-219.59433109 1609.24868473 -225.79186742 1611.63202102 -232 1614 C-233.11117187 1614.42925781 -234.22234375 1614.85851563 -235.3671875 1615.30078125 C-249.1198764 1620.55046357 -263.06608168 1625.25792057 -277 1630 C-278.08361816 1630.36899414 -279.16723633 1630.73798828 -280.28369141 1631.11816406 C-283.1875463 1632.10437893 -286.09317931 1633.08506562 -289 1634.0625 C-289.84715576 1634.34923584 -290.69431152 1634.63597168 -291.56713867 1634.93139648 C-292.34935791 1635.19251221 -293.13157715 1635.45362793 -293.9375 1635.72265625 C-294.94103516 1636.05922241 -294.94103516 1636.05922241 -295.96484375 1636.40258789 C-298.28935421 1637.08493879 -300.6244802 1637.52596379 -303 1638 C-304.93049325 1638.51655542 -306.85596737 1639.05206592 -308.77734375 1639.6015625 C-328.02241502 1645.0428125 -347.3685238 1650.12617883 -367 1654 C-368.92722772 1654.39643412 -370.85430092 1654.79361994 -372.78125 1655.19140625 C-375.02080163 1655.64859283 -377.26038606 1656.10561876 -379.5 1656.5625 C-380.62792969 1656.79646484 -381.75585938 1657.03042969 -382.91796875 1657.27148438 C-384.00722656 1657.49255859 -385.09648437 1657.71363281 -386.21875 1657.94140625 C-387.20810547 1658.14451416 -388.19746094 1658.34762207 -389.21679688 1658.55688477 C-392 1659 -392 1659 -394.42382812 1658.94116211 C-397.83182874 1659.01899836 -400.73232044 1660.0415554 -404 1661 C-406.73864936 1661.50064276 -409.45912755 1661.95944872 -412.2109375 1662.3671875 C-412.99914886 1662.48677826 -413.78736023 1662.60636902 -414.59945679 1662.72958374 C-417.19027647 1663.118744 -419.78233712 1663.49832273 -422.375 1663.875 C-423.27448364 1664.00628296 -424.17396729 1664.13756592 -425.10070801 1664.27282715 C-445.33888276 1667.20418011 -465.61739804 1669.37188386 -486 1671 C-487.12426392 1671.09087891 -487.12426392 1671.09087891 -488.27124023 1671.18359375 C-529.40973452 1674.46555673 -571.05556014 1674.10527992 -612.21272278 1671.37120056 C-619.23587542 1670.90563935 -626.26456013 1670.60555356 -633.29785156 1670.34204102 C-638.78401673 1670.10799163 -638.78401673 1670.10799163 -641 1669 C-642.92044098 1668.72082258 -644.84786558 1668.48896999 -646.77734375 1668.28125 C-647.93041016 1668.15363281 -649.08347656 1668.02601562 -650.27148438 1667.89453125 C-651.48126953 1667.76433594 -652.69105469 1667.63414063 -653.9375 1667.5 C-656.32193863 1667.24256729 -658.70607158 1666.9822826 -661.08984375 1666.71875 C-662.15066162 1666.60466797 -663.21147949 1666.49058594 -664.30444336 1666.37304688 C-667 1666 -667 1666 -670 1665 C-671.95956471 1665.0088361 -673.91915566 1665.01903096 -675.87860107 1665.04238892 C-679.07837114 1664.97845243 -682.09470948 1664.36590206 -685.2265625 1663.73046875 C-686.6355674 1663.45142717 -688.04475647 1663.17331436 -689.45410156 1662.89599609 C-690.19293579 1662.74886169 -690.93177002 1662.60172729 -691.69299316 1662.45013428 C-695.71132341 1661.66609317 -699.74311791 1660.95759878 -703.7734375 1660.23828125 C-721.35351609 1657.06561668 -738.86951099 1653.76921342 -756.25 1649.625 C-756.9585614 1649.4561026 -757.6671228 1649.2872052 -758.39715576 1649.1131897 C-764.97109369 1647.53772377 -771.50503609 1645.87971211 -778 1644 C-779.8324008 1643.49659319 -781.66567429 1642.99634696 -783.5 1642.5 C-787.6761115 1641.364691 -791.8417799 1640.19948657 -796 1639 C-797.05445312 1638.70222656 -798.10890625 1638.40445313 -799.1953125 1638.09765625 C-803.18786556 1636.94580059 -807.15830288 1635.73724957 -811.125 1634.5 C-812.15947266 1634.18095703 -812.15947266 1634.18095703 -813.21484375 1633.85546875 C-816.08111655 1632.96215619 -818.89910054 1632.04118345 -821.6796875 1630.90625 C-824.11125964 1629.95654506 -826.44411759 1629.50715147 -829 1629 C-830.5766926 1628.41172142 -832.13951532 1627.78513231 -833.6875 1627.125 C-837.94423889 1625.37296928 -842.20954971 1623.99032107 -846.62890625 1622.71484375 C-849.47778516 1621.85595604 -852.23150179 1620.82270152 -855.00390625 1619.74609375 C-857.14953528 1618.94410717 -859.31614804 1618.25311985 -861.5 1617.5625 C-864.48532833 1616.58613406 -867.21610596 1615.45270661 -870 1614 C-873.42973892 1612.21086454 -876.85537465 1611.00591934 -880.53515625 1609.8359375 C-885.46384706 1608.16440052 -890.21720479 1606.04481824 -895 1604 C-896.12921875 1603.52304688 -897.2584375 1603.04609375 -898.421875 1602.5546875 C-909.57419876 1597.82114564 -920.55429614 1592.81016736 -931.34375 1587.296875 C-933.86245427 1586.06715468 -936.39100017 1585.02091298 -939 1584 C-940.92262984 1583.18051843 -942.83929274 1582.34690808 -944.75 1581.5 C-946.19632813 1580.86578125 -946.19632813 1580.86578125 -947.671875 1580.21875 C-950 1579 -950 1579 -951 1577 C-952.9978774 1576.326999 -954.99840267 1575.66185541 -957 1575 C-959.59337821 1573.73923409 -962.10599159 1572.34001564 -964.625 1570.9375 C-970.07690247 1567.89090407 -970.07690247 1567.89090407 -976 1566 C-976 1565.34 -976 1564.68 -976 1564 C-977.08667969 1563.58427734 -977.08667969 1563.58427734 -978.1953125 1563.16015625 C-987.02312567 1559.50853994 -995.15270018 1554.15689675 -1003.30859375 1549.21875 C-1006.51137095 1547.28337755 -1009.74977449 1545.41727203 -1013 1543.5625 C-1018.32109246 1540.48299831 -1023.38619769 1537.09146937 -1028.47094727 1533.64331055 C-1033.79319586 1530.06497412 -1039.28844319 1526.92108727 -1045 1524 C-1045 1523.34 -1045 1522.68 -1045 1522 C-1045.81597656 1521.61908203 -1045.81597656 1521.61908203 -1046.6484375 1521.23046875 C-1051.68707418 1518.59397281 -1056.30187426 1515.19216712 -1061 1512 C-1062.31484375 1511.10861328 -1062.31484375 1511.10861328 -1063.65625 1510.19921875 C-1068.81553813 1506.64812644 -1073.7017453 1502.85861494 -1078.55859375 1498.90625 C-1080.8508502 1497.11645617 -1083.1822352 1495.51293664 -1085.625 1493.9375 C-1089.48888521 1491.43693599 -1092.87834795 1488.61731175 -1096.2734375 1485.515625 C-1098.13301401 1483.81596165 -1098.13301401 1483.81596165 -1101 1482 C-1101 1481.34 -1101 1480.68 -1101 1480 C-1101.639375 1479.896875 -1102.27875 1479.79375 -1102.9375 1479.6875 C-1103.618125 1479.460625 -1104.29875 1479.23375 -1105 1479 C-1105.495 1477.515 -1105.495 1477.515 -1106 1476 C-1107.32495618 1475.63478772 -1108.66014028 1475.30604709 -1110 1475 C-1111.921875 1473.66015625 -1111.921875 1473.66015625 -1113.75 1472.0625 C-1114.36359375 1471.53785156 -1114.9771875 1471.01320313 -1115.609375 1470.47265625 C-1117 1469 -1117 1469 -1117 1467 C-1117.84304688 1466.87431641 -1117.84304688 1466.87431641 -1118.703125 1466.74609375 C-1121.70483195 1465.77104948 -1123.41556318 1464.17188491 -1125.75 1462.0625 C-1126.54921875 1461.35222656 -1127.3484375 1460.64195313 -1128.171875 1459.91015625 C-1130 1458 -1130 1458 -1130 1456 C-1130.58555664 1455.89961426 -1131.17111328 1455.79922852 -1131.77441406 1455.69580078 C-1134.41179255 1454.87125836 -1135.62993675 1453.78107085 -1137.609375 1451.8671875 C-1138.28226563 1451.22523437 -1138.95515625 1450.58328125 -1139.6484375 1449.921875 C-1140.34195312 1449.24640625 -1141.03546875 1448.5709375 -1141.75 1447.875 C-1143.11849123 1446.55854266 -1144.48828177 1445.24343463 -1145.859375 1443.9296875 C-1146.53734131 1443.27838867 -1147.21530762 1442.62708984 -1147.91381836 1441.95605469 C-1150.63847929 1439.40134627 -1153.45651734 1436.96607895 -1156.30200195 1434.54736328 C-1158 1433 -1158 1433 -1160.4375 1430 C-1162.62486479 1427.43918269 -1164.45557033 1425.81309241 -1167.12109375 1423.83984375 C-1172.00584723 1420.0935383 -1176.31486755 1415.9476256 -1180.625 1411.5625 C-1181.3365625 1410.85029297 -1182.048125 1410.13808594 -1182.78125 1409.40429688 C-1193.81071054 1398.28393418 -1193.81071054 1398.28393418 -1198 1392 C-1193.70986239 1393.45096062 -1190.70807135 1395.6129081 -1187.1875 1398.4375 C-1181.62119705 1402.83063596 -1175.89018198 1406.9003507 -1170.02539062 1410.88354492 C-1165.52935484 1413.93974792 -1161.09376111 1417.06597571 -1156.6875 1420.25 C-1151.84483871 1423.73587827 -1146.92644841 1427.04911514 -1141.86328125 1430.20703125 C-1139.70089996 1431.56110084 -1137.5556478 1432.93209698 -1135.41796875 1434.32421875 C-1134.79921875 1434.72632568 -1134.18046875 1435.12843262 -1133.54296875 1435.54272461 C-1132.34233792 1436.32392454 -1131.14302672 1437.10715799 -1129.9453125 1437.89282227 C-1126.40017244 1440.19130272 -1122.78300857 1442.12749217 -1119 1444 C-1118.2575 1444.598125 -1117.515 1445.19625 -1116.75 1445.8125 C-1112.10976859 1449.50359317 -1106.93806611 1452.88948096 -1101.375 1454.9921875 C-1098.89383228 1456.04505143 -1097.8470307 1457.09524959 -1096 1459 C-1094.36021406 1459.96392822 -1092.68935716 1460.87585589 -1091 1461.75 C-1087.09910147 1463.8205949 -1083.3742748 1466.00695958 -1079.6875 1468.4375 C-1074.42966929 1471.84716927 -1068.99343096 1474.60455349 -1063.359375 1477.32421875 C-1058.75324241 1479.62192907 -1054.34845328 1482.2008532 -1049.921875 1484.82421875 C-1041.73583838 1489.6330112 -1033.34659922 1493.76855957 -1024.7421875 1497.7734375 C-1020.37005443 1499.81164129 -1016.05400027 1501.94728931 -1011.75 1504.125 C-998.37583262 1510.87298913 -984.75433703 1517.04852126 -970.9140625 1522.77734375 C-968.38391852 1523.8389189 -965.87646979 1524.93551273 -963.375 1526.0625 C-960.21808354 1527.48339888 -957.03408443 1528.79499137 -953.8125 1530.0625 C-951.09568718 1531.13250628 -948.54304778 1532.23313889 -945.9375 1533.5625 C-943.56443036 1534.7237894 -941.41167163 1535.56698407 -938.9140625 1536.37109375 C-934.0451857 1537.96911689 -929.24078371 1539.71581189 -924.4375 1541.5 C-923.23963867 1541.94279297 -923.23963867 1541.94279297 -922.01757812 1542.39453125 C-918.45264585 1543.71358525 -914.89195134 1545.04116689 -911.33984375 1546.39453125 C-906.57812267 1548.17943761 -901.76612228 1549.80079974 -896.94140625 1551.40625 C-895.49445122 1551.88794899 -895.49445122 1551.88794899 -894.01826477 1552.37937927 C-848.20655997 1567.57486074 -801.65746275 1580.1039426 -754.10839844 1588.5703125 C-752 1589 -752 1589 -749 1590 C-746.06408245 1590.45027544 -743.13197923 1590.86332123 -740.1875 1591.25 C-738.1705715 1591.5169164 -736.15364454 1591.78384437 -734.13671875 1592.05078125 C-733.00540527 1592.1998291 -731.8740918 1592.34887695 -730.70849609 1592.50244141 C-727.42879698 1592.9424695 -724.15204253 1593.39859793 -720.87561035 1593.86203003 C-702.22659636 1596.49299492 -683.57792121 1598.63232426 -664.8125 1600.25 C-663.85875488 1600.33281219 -662.90500977 1600.41562439 -661.92236328 1600.50094604 C-659.14264786 1600.7400268 -656.36250827 1600.97308231 -653.58203125 1601.203125 C-652.79451981 1601.26957718 -652.00700836 1601.33602936 -651.19563293 1601.40449524 C-635.78911984 1602.64093854 -620.40134612 1603.16505741 -604.94921875 1603.203125 C-603.17344641 1603.21014852 -601.39767432 1603.21723533 -599.62190247 1603.22438049 C-593.97709794 1603.2437797 -588.3323345 1603.24881494 -582.6875 1603.25 C-581.72506378 1603.25044186 -580.76262756 1603.25088371 -579.77102661 1603.25133896 C-550.41423261 1603.2584058 -521.23348473 1602.96640066 -492 1600 C-490.9996875 1599.89864746 -489.999375 1599.79729492 -488.96875 1599.69287109 C-479.48440204 1598.72380552 -470.00361876 1597.72372737 -460.53320312 1596.6262207 C-459.6025 1596.51870483 -458.67179687 1596.41118896 -457.71289062 1596.30041504 C-455.98137491 1596.09887254 -454.25022129 1595.89418278 -452.51953125 1595.68566895 C-448.31258025 1595.19373416 -444.24343685 1594.94338337 -440 1595 C-438.32995171 1594.68404492 -436.66362417 1594.34820041 -435 1594 C-432.63201852 1593.73598834 -430.26309113 1593.50121375 -427.890625 1593.28125 C-425.99212742 1593.19058268 -425.99212742 1593.19058268 -425 1592 C-423.36636957 1591.66723385 -421.72170994 1591.38826199 -420.07421875 1591.1328125 C-419.05537598 1590.97103516 -418.0365332 1590.80925781 -416.98681641 1590.64257812 C-415.89804199 1590.47177734 -414.80926758 1590.30097656 -413.6875 1590.125 C-402.50172908 1588.30798869 -391.85372569 1586.37295432 -381.36328125 1581.97265625 C-375.97518734 1579.7550771 -370.40520359 1578.11344065 -364.8125 1576.5 C-360.95838128 1575.36223079 -357.56795863 1573.86506929 -354 1572 C-352.00409854 1571.32116142 -350.0032827 1570.65673654 -348 1570 C-339.82044491 1567.08239719 -331.80124448 1564.11952628 -324.09375 1560.0859375 C-321.13349451 1558.55058111 -318.07542646 1557.28608743 -315 1556 C-307.78897335 1552.89770642 -300.71339338 1549.51316453 -293.64501953 1546.10131836 C-291.76875506 1545.19654408 -289.89030532 1544.29642523 -288.01171875 1543.39648438 C-276.66229246 1537.93743154 -265.62750871 1532.01673413 -254.7734375 1525.62109375 C-252.32511909 1524.1900344 -249.86058483 1522.80239132 -247.375 1521.4375 C-217.10915428 1504.72596289 -188.78957472 1484.02716063 -161.8125 1462.5 C-161.16442383 1461.9834082 -160.51634766 1461.46681641 -159.84863281 1460.93457031 C-157.47267478 1459.03050571 -155.15479087 1457.15479087 -153 1455 C-151.90246064 1454.19917075 -150.79707526 1453.40906817 -149.6875 1452.625 C-143.89264831 1448.32899884 -138.75702642 1443.30442077 -133.49511719 1438.38623047 C-130.39710024 1435.51383657 -127.20473636 1432.75197008 -124 1430 C-123.07767578 1429.20142578 -123.07767578 1429.20142578 -122.13671875 1428.38671875 C-119.63278856 1426.22593959 -117.14707907 1424.1103093 -114.5 1422.125 C-111.62220681 1419.67887579 -109.29391651 1416.96765864 -106.83984375 1414.10546875 C-105.00935062 1412.0107006 -103.13009283 1409.99105669 -101.1875 1408 C-100.34251953 1407.13375 -100.34251953 1407.13375 -99.48046875 1406.25 C-98 1405 -98 1405 -96 1405 C-96 1404.01 -96 1403.02 -96 1402 C-95.38125 1401.7525 -94.7625 1401.505 -94.125 1401.25 C-91.88825413 1400.19815332 -91.88825413 1400.19815332 -91.11328125 1398.17578125 C-89.78547476 1395.58073488 -88.15485397 1393.9597192 -86.0625 1391.9375 C-85.37285156 1391.26589844 -84.68320313 1390.59429688 -83.97265625 1389.90234375 C-82.99619141 1388.96068359 -82.99619141 1388.96068359 -82 1388 C-79.9710761 1386.01616329 -78.08217112 1383.97919674 -76.25 1381.8125 C-74.06924332 1379.24500815 -71.85981001 1376.70803914 -69.625 1374.1875 C-66.16454941 1370.26565599 -62.96977901 1366.16041051 -59.796875 1362.00390625 C-58 1360 -58 1360 -55 1359 C-54.87625 1358.443125 -54.7525 1357.88625 -54.625 1357.3125 C-53.65320769 1353.71686845 -51.52982443 1351.71493353 -49 1349 C-48.34 1349 -47.68 1349 -47 1349 C-46.87625 1348.4225 -46.7525 1347.845 -46.625 1347.25 C-45.21926272 1342.18934579 -42.69443419 1339.69443419 -39 1336 C-34.84645 1331.02156274 -31.13504677 1325.79996527 -27.59375 1320.375 C-25.82181241 1317.73446555 -23.95177631 1315.18278947 -22.0625 1312.625 C-18.11604131 1307.23125778 -14.5267217 1301.67435874 -11 1296 C-10.18415016 1294.70017143 -9.36770632 1293.40071557 -8.55078125 1292.1015625 C0.63306746 1277.48099974 9.42869486 1262.675025 17.6484375 1247.48828125 C18.85170897 1245.27300979 20.07719524 1243.07249792 21.3125 1240.875 C27.82379633 1229.13366243 33.8902102 1217.42751345 39 1205 C41.01907798 1200.28881805 43.15063522 1195.68091103 45.5 1191.125 C47.75586259 1186.68247305 49.45863134 1182.16079207 51.09765625 1177.4609375 C52.17695518 1174.51739497 53.59881487 1171.80237025 55 1169 C55.75678562 1166.90899695 56.43934488 1164.80022769 57.12109375 1162.68359375 C59.53759189 1155.30521943 62.14514142 1147.98242794 65.125 1140.8125 C66.77994798 1136.73423533 67.97814933 1132.65539649 69.08203125 1128.3984375 C70.55266373 1122.95396831 72.21076951 1117.56619705 73.84326172 1112.16845703 C75.26727532 1107.45584761 76.65996373 1102.73738965 78 1098 C78.3091333 1096.94248535 78.6182666 1095.8849707 78.93676758 1094.79541016 C80.03767395 1090.86551566 81.01886976 1086.91716112 81.953125 1082.9453125 C82.13383545 1082.17984604 82.3145459 1081.41437958 82.50073242 1080.62571716 C92.39343443 1038.52379339 99.45392178 996.22996879 102 953 C102.08459473 951.73567139 102.08459473 951.73567139 102.17089844 950.44580078 C107.04549791 877.39891815 99.06152071 802.4252839 80.42163086 731.69311523 C79.63700321 728.70578978 79 726.10441074 79 723 C78.01 722.67 77.02 722.34 76 722 C75.85046875 720.97390625 75.7009375 719.9478125 75.546875 718.890625 C68.46144288 675.92371396 48.29027568 633.49771164 29.33398438 594.73095703 C28.19860243 592.4065825 27.0737112 590.07761768 25.953125 587.74609375 C7.72330021 550.16483097 -15.53703556 514.08685595 -41 481 C-41.4846875 480.36658691 -41.969375 479.73317383 -42.46875 479.08056641 C-48.2355624 471.56451369 -54.23732916 464.27259955 -60.39453125 457.07421875 C-62.75864187 454.30300845 -65.03843958 451.47072811 -67.3125 448.625 C-72.12236138 442.71377502 -77.32476517 437.20084786 -82.5546875 431.6640625 C-85.41904624 428.63112025 -88.2156083 425.5442007 -91 422.4375 C-96.5595683 416.35438491 -102.36857836 410.52095693 -108.1875 404.6875 C-108.66131104 404.21110077 -109.13512207 403.73470154 -109.62329102 403.24386597 C-114.68611748 398.15923209 -119.78897083 393.18909442 -125.23706055 388.51782227 C-127.82721356 386.28780132 -130.31151461 383.95458919 -132.8125 381.625 C-137.37468024 377.41491746 -142.0530452 373.40555104 -146.890625 369.51171875 C-149.29131865 367.57246496 -151.67379834 365.61713745 -154.046875 363.64453125 C-161.63792993 357.33757784 -169.25657429 351.12965364 -177.22705078 345.30322266 C-179.3983508 343.70718857 -181.55620236 342.09358044 -183.71484375 340.48046875 C-185.41387386 339.21589234 -187.11309311 337.95157002 -188.8125 336.6875 C-189.61349121 336.08808594 -190.41448242 335.48867187 -191.23974609 334.87109375 C-195.68781953 331.57746089 -200.13027898 328.63316023 -205 326 C-205 325.34 -205 324.68 -205 324 C-205.69609375 323.75636719 -206.3921875 323.51273438 -207.109375 323.26171875 C-210.44477529 321.8058616 -213.27995398 319.88253207 -216.25 317.8125 C-261.24954896 287.1616355 -311.31922805 263.1746075 -362.25 244.1875 C-363.96364746 243.54735962 -363.96364746 243.54735962 -365.71191406 242.89428711 C-366.76088867 242.51022705 -367.80986328 242.12616699 -368.890625 241.73046875 C-369.80875977 241.39426514 -370.72689453 241.05806152 -371.67285156 240.71166992 C-374.07255229 239.85377859 -374.07255229 239.85377859 -377 240 C-377 239.34 -377 238.68 -377 238 C-377.58523438 237.92523437 -378.17046875 237.85046875 -378.7734375 237.7734375 C-384.86470605 236.84054052 -390.50938361 235.25727078 -396.3125 233.25 C-403.38456512 230.82223079 -410.49171783 228.59660084 -417.6875 226.5625 C-418.60764893 226.29147461 -419.52779785 226.02044922 -420.47583008 225.74121094 C-425.67017888 224.30191069 -429.64354608 223.62830886 -435 225 C-437.04291182 226.26660533 -439.04690112 227.59886384 -441 229 C-442.66140763 229.67966676 -444.32700041 230.34938905 -446 231 C-446.66 231.66 -447.32 232.32 -448 233 C-449.89535724 233.80232914 -451.81711471 234.54284685 -453.75 235.25 C-458.34795651 236.96610346 -462.83817161 238.79767973 -467.3125 240.8125 C-481.89821014 247.08193784 -497.0519398 251.76364731 -512.5 255.375 C-513.51223633 255.61347656 -514.52447266 255.85195312 -515.56738281 256.09765625 C-529.76776477 259.26857084 -543.74118835 260.38329797 -558.25 260.3125 C-559.39221008 260.31026428 -559.39221008 260.31026428 -560.55749512 260.3079834 C-572.58441345 260.26580577 -584.2235354 259.61984289 -596 257 C-597.25167969 256.73316406 -598.50335937 256.46632813 -599.79296875 256.19140625 C-634.50437824 247.82048756 -667.16483689 228.39435594 -693 204 C-694.22531703 202.95380771 -695.45447636 201.91209828 -696.6875 200.875 C-708.26188634 190.75917454 -720.27597547 179.39784501 -728 166 C-701.51547677 149.68581138 -664.94887045 129.12263651 -633 130 C-632.67 129.34 -632.34 128.68 -632 128 C-629.69921875 127.62109375 -629.69921875 127.62109375 -626.6875 127.4375 C-625.72199219 127.37433594 -624.75648438 127.31117187 -623.76171875 127.24609375 C-621.89966797 127.12427734 -621.89966797 127.12427734 -620 127 C-619.17290527 126.91838623 -618.34581055 126.83677246 -617.49365234 126.75268555 C-608.73737488 125.90869801 -600.03455506 125.88518748 -591.25 125.9375 C-589.76302236 125.94253015 -588.27604305 125.94709035 -586.7890625 125.95117188 C-583.19267294 125.96204568 -579.59634763 125.9792248 -576 126 C-576 126.66 -576 127.32 -576 128 C-575.18402344 127.99097656 -574.36804687 127.98195313 -573.52734375 127.97265625 C-561.01619489 128.28577532 -549.76466226 131.94366966 -538 136 C-536.9162207 136.37366699 -536.9162207 136.37366699 -535.81054688 136.75488281 C-501.34089397 148.95210233 -472.1064799 172.65287042 -446.625 198.25 C-445.74972656 199.12140625 -444.87445312 199.9928125 -443.97265625 200.890625 C-443.12832031 201.73625 -442.28398437 202.581875 -441.4140625 203.453125 C-440.6607666 204.20754883 -439.9074707 204.96197266 -439.13134766 205.73925781 C-437 208 -437 208 -435.13818359 210.67333984 C-432.35748939 213.69914662 -430.38594804 214.01920013 -426.375 214.7734375 C-425.72461258 214.90250488 -425.07422516 215.03157227 -424.40412903 215.16455078 C-423.00370946 215.44071696 -421.60153071 215.70808095 -420.19790649 215.96746826 C-416.43979443 216.66429042 -412.69588882 217.43199976 -408.94921875 218.1875 C-408.18945236 218.33875336 -407.42968597 218.49000671 -406.64689636 218.64584351 C-357.73900974 228.42892763 -308.68272884 245.09971192 -263.62109375 266.5234375 C-258.79112799 268.80769481 -254.19443864 270.72818421 -249 272 C-249 272.66 -249 273.32 -249 274 C-248.154375 274.25394531 -247.30875 274.50789063 -246.4375 274.76953125 C-242.74963166 276.08962048 -239.41579831 277.79898146 -236 279.6875 C-231.23548218 282.28272592 -226.4533052 284.77238501 -221.5625 287.125 C-198.54843999 298.56731105 -176.01000246 312.48875822 -155.1953125 327.55859375 C-153.1590639 329.18295045 -153.1590639 329.18295045 -151 329 C-149.32892613 330.66224778 -147.66315914 332.32983317 -146 334 C-143.85290493 335.61303228 -141.70884117 337.1662527 -139.5 338.6875 C-134.62386127 342.10558398 -129.83103253 345.60093363 -125.125 349.25 C-124.32002075 349.87382568 -124.32002075 349.87382568 -123.4987793 350.51025391 C-122.97968994 350.9129248 -122.46060059 351.3155957 -121.92578125 351.73046875 C-119.39936265 353.69021402 -116.86431254 355.63599648 -114.3125 357.5625 C-113.71050781 358.01753906 -113.10851563 358.47257812 -112.48828125 358.94140625 C-110.9685673 360.07988199 -110.9685673 360.07988199 -109 361 C-109 361.66 -109 362.32 -109 363 C-108.47148437 363.21914062 -107.94296875 363.43828125 -107.3984375 363.6640625 C-104.119079 365.49067587 -101.43187773 367.91065254 -98.625 370.375 C-97.36350307 371.47160939 -96.1017782 372.56795661 -94.83984375 373.6640625 C-94.19901855 374.22254883 -93.55819336 374.78103516 -92.89794922 375.35644531 C-91.13259526 376.88517735 -89.35397163 378.39578636 -87.56640625 379.8984375 C-76.25095405 389.43025371 -65.44673988 399.52448122 -55 410 C-53.38851566 411.60075871 -51.77652304 413.20100587 -50.1640625 414.80078125 C-48.31763651 416.63794865 -46.47128454 418.47519045 -44.625 420.3125 C-43.70460938 421.22451172 -42.78421875 422.13652344 -41.8359375 423.07617188 C-37.22980801 427.6658509 -32.7510875 432.29433557 -28.52001953 437.23266602 C-26.29023427 439.82524801 -23.95573877 442.31028045 -21.625 444.8125 C-17.34262327 449.44807001 -13.28561862 454.2183229 -9.328125 459.13671875 C-6.68609607 462.3860597 -3.97162144 465.56741104 -1.25 468.75 C1.66039796 472.15684536 4.50377188 475.56663916 7.0625 479.25 C8.71317169 482.05392095 8.71317169 482.05392095 11 483 C11.98548587 484.70803748 12.9673654 486.41840128 13.91992188 488.14501953 C15.45542965 490.78217777 17.32893336 493.06975178 19.25 495.4375 C26.50126409 504.60508967 32.75466096 514.48449118 39.17431641 524.24023438 C40.69713111 526.54217305 42.23539661 528.83090937 43.79296875 531.109375 C60.68568902 555.8494705 75.52908438 582.53712323 88.1875 609.6796875 C88.73591553 610.8543457 88.73591553 610.8543457 89.29541016 612.05273438 C89.99826579 613.56462103 90.69612489 615.07884385 91.38818359 616.59570312 C93.23247598 620.60362805 93.23247598 620.60362805 96 624 C96.69355156 626.0591825 97.38101371 628.1205827 98.04052734 630.19091797 C99.77889648 635.28040277 101.92841579 640.20652256 104.01324463 645.16189575 C108.1832935 655.07814141 112.25659131 665.00990261 115.9140625 675.12890625 C116.89474156 677.87986644 116.89474156 677.87986644 117.9776001 679.91889954 C118.98910333 681.97781977 119.73572063 683.98865181 120.44433594 686.16870117 C120.70146362 686.95852386 120.95859131 687.74834656 121.22351074 688.56210327 C122.46771714 692.46846343 123.68986802 696.38084597 124.890625 700.30078125 C125.15633301 701.16764053 125.42204102 702.03449982 125.69580078 702.92762756 C126.5500084 705.72173856 127.40077241 708.51687151 128.25 711.3125 C128.53935425 712.26465393 128.8287085 713.21680786 129.12683105 714.19781494 C134.40712133 731.62409126 139.44130298 749.12754717 143 767 C143.41928929 768.92402844 143.84280049 770.84713956 144.26953125 772.76953125 C152.01306497 807.96281827 157.13648106 843.65034519 159.45556641 879.62646484 C159.51663574 880.57344238 159.57770508 881.52041992 159.640625 882.49609375 C159.68735352 883.30232178 159.73408203 884.1085498 159.78222656 884.93920898 C159.94616906 887.19647393 159.94616906 887.19647393 161 890 C161.07046937 891.59754056 161.08426259 893.19792904 161.0625 894.796875 C161.05412109 895.74804199 161.04574219 896.69920898 161.03710938 897.67919922 C161.01874023 899.19924561 161.01874023 899.19924561 161 900.75 C160.94602192 908.67128285 161.14532257 916.44402984 161.77734375 924.33984375 C162.19588173 931.22002079 162.07589743 938.11020024 162 945 C161.34 945 160.68 945 160 945 C160.0314209 945.88123535 160.0314209 945.88123535 160.06347656 946.78027344 C161.39629095 991.33676469 154.38247492 1036.38468092 145.2722168 1079.88891602 C143.58349528 1087.76171962 143.58349528 1087.76171962 142.3828125 1095.71875 C142.0681079 1098.41621801 141.65372876 1100.49536231 140.6875 1103 C138.95052805 1107.88207163 137.76835041 1112.872772 136.56030273 1117.90405273 C135.50406085 1122.21657651 134.23912856 1126.37399705 132.75 1130.5625 C131.58440441 1133.87477165 130.78371176 1136.54734027 130.9375 1140.0625 C130.958125 1141.031875 130.97875 1142.00125 131 1143 C130.56518311 1143.3926001 130.13036621 1143.7852002 129.68237305 1144.18969727 C127.10857189 1146.95921338 126.28747358 1150.37112773 125.14453125 1153.90234375 C124.88173874 1154.68804245 124.61894623 1155.47374115 124.34819031 1156.2832489 C123.78666897 1157.96305662 123.22882206 1159.64409628 122.67431641 1161.32623291 C121.23771245 1165.67908186 119.77051852 1170.02152623 118.30078125 1174.36328125 C118.01409576 1175.21098083 117.72741028 1176.05868042 117.43203735 1176.93206787 C114.53009076 1185.4651889 111.29739933 1193.83790594 107.78613281 1202.13818359 C107.04884196 1203.88432646 106.33225898 1205.63917217 105.6171875 1207.39453125 C98.87593368 1223.90848323 91.00578038 1240.06571118 83 1256 C82.41605469 1257.17949219 81.83210938 1258.35898438 81.23046875 1259.57421875 C77.64322883 1266.80763559 74.05976342 1274.01720692 70 1281 C69.65211426 1281.59893066 69.30422852 1282.19786133 68.94580078 1282.81494141 C60.03450121 1298.1295263 50.83013247 1313.25480129 41 1328 C39.73412812 1330.01314463 38.4798542 1332.03276801 37.234375 1334.05859375 C36.14383909 1335.77377206 34.95340248 1337.42453551 33.75 1339.0625 C31.34988942 1343.09125705 30.42762829 1346.4571683 31.4765625 1351.1171875 C32.83702651 1355.19857952 34.09394935 1357.86942692 38 1360 C38.5775 1360.391875 39.155 1360.78375 39.75 1361.1875 C43.18121515 1362.42654991 46.43328573 1362.54926009 50 1362 C53.07956297 1360.47648077 53.07956297 1360.47648077 56 1358 C56.77085938 1357.42121094 57.54171875 1356.84242187 58.3359375 1356.24609375 C62.79468516 1353.17607501 62.79468516 1353.17607501 66 1349 C66.66 1349 67.32 1349 68 1349 C68.25434814 1348.25596924 68.50869629 1347.51193848 68.77075195 1346.74536133 C70.07431316 1343.83403148 71.38801443 1342.27758762 73.66796875 1340.07421875 C74.76141602 1339.00204102 74.76141602 1339.00204102 75.87695312 1337.90820312 C76.63943359 1337.17537109 77.40191406 1336.44253906 78.1875 1335.6875 C83.19008684 1330.8324309 88.0442259 1325.95845946 92.57104492 1320.65209961 C94.28646879 1318.66879646 96.14636109 1316.85363891 98 1315 C98.88036211 1313.92101961 99.7550718 1312.83741025 100.625 1311.75 C101.800625 1310.38875 101.800625 1310.38875 103 1309 C103.66 1309 104.32 1309 105 1309 C105.103125 1308.401875 105.20625 1307.80375 105.3125 1307.1875 C106.09824033 1304.68741714 106.96918853 1303.62464918 109 1302 C109.66 1302 110.32 1302 111 1302 C111.11794922 1301.15695312 111.11794922 1301.15695312 111.23828125 1300.296875 C112.25666238 1297.2260642 113.96393339 1295.5890282 116.1875 1293.25 C119.5269245 1289.64721394 122.58974393 1286.02047527 125.48046875 1282.0546875 C129.17437109 1277.05984783 133.14767774 1272.26665751 137.078125 1267.45703125 C140.8398035 1262.82672088 144.32417938 1258.14661341 147.57421875 1253.14453125 C148.9620218 1251.05712338 150.42162305 1249.05833798 151.9375 1247.0625 C154.28211201 1243.97356672 156.56705991 1240.84944624 158.8125 1237.6875 C159.39644531 1236.86636719 159.98039062 1236.04523438 160.58203125 1235.19921875 C162.14768749 1232.97078287 162.14768749 1232.97078287 163 1230 C163.56332031 1229.45472656 164.12664062 1228.90945313 164.70703125 1228.34765625 C167.92160533 1225.05641431 170.22229951 1221.30672197 172.6875 1217.4375 C173.18572266 1216.66986328 173.68394531 1215.90222656 174.19726562 1215.11132812 C177.0020605 1210.75813989 177.0020605 1210.75813989 179 1206 C179.43957031 1205.56300781 179.87914063 1205.12601563 180.33203125 1204.67578125 C182.57758188 1202.41971282 184.03455016 1199.90665278 185.6875 1197.1875 C186.20425293 1196.33841064 186.20425293 1196.33841064 186.73144531 1195.47216797 C190.61381383 1189.05376452 194.30870696 1182.52955617 198 1176 C199.93599657 1172.60237122 201.88003743 1169.20935652 203.82421875 1165.81640625 C205.51634969 1162.86138512 207.20285665 1159.90323808 208.88818359 1156.94433594 C209.9981643 1155.00321026 211.11771762 1153.06784408 212.23828125 1151.1328125 C216.68060078 1143.40962691 220.73932001 1135.60360218 224.4375 1127.49487305 C225.80645509 1124.49527193 227.16619748 1121.75070378 229 1119 C229 1118.01 229 1117.02 229 1116 C229.66 1115.34 230.32 1114.68 231 1114 C231.7273269 1112.313924 232.4510446 1110.62605563 233.14453125 1108.92578125 C233.99402813 1107.01344352 234.97724196 1105.28724651 236.0625 1103.5 C238.04531897 1100.14504014 239.00396745 1096.77069465 240 1093 C240.65338539 1091.6601083 241.32325867 1090.32824824 242 1089 C243.11570936 1086.50440829 244.22032127 1084.00583004 245.3125 1081.5 C245.62227783 1080.79093506 245.93205566 1080.08187012 246.2512207 1079.35131836 C248.5162368 1074.15062585 250.7144503 1068.92470619 252.875 1063.6796875 C253.93336001 1061.15873275 255.04927602 1058.6731803 256.1875 1056.1875 C257.35506952 1053.59651902 258.21288349 1051.25490779 259 1048.5 C259.80723276 1045.67468533 260.71100537 1043.33024881 261.9375 1040.6875 C263.28092297 1037.75205139 264.39813704 1034.88893613 265.28125 1031.78515625 C266.63076655 1027.17920678 268.08258101 1022.61093535 269.56640625 1018.046875 C275.05100241 1001.09566295 280.22431478 984.10970406 284.75 966.875 C284.9681839 966.04963745 285.1863678 965.2242749 285.41116333 964.37390137 C286.02572121 962.04003667 286.63206364 959.70423947 287.234375 957.3671875 C287.41501999 956.67722687 287.59566498 955.98726624 287.78178406 955.27639771 C288.60429531 952.02937487 289 949.384038 289 946 C289.66 946 290.32 946 291 946 C291.13124268 944.84830322 291.26248535 943.69660645 291.39770508 942.51000977 C291.93371706 938.23370021 292.74160039 934.05344022 293.63671875 929.83984375 C293.96782081 928.24508241 294.29827705 926.65018688 294.62817383 925.05517578 C294.80103912 924.22213928 294.97390442 923.38910278 295.15200806 922.53082275 C300.51248584 896.5706768 304.75972992 870.45084892 307.875 844.125 C307.99528564 843.11002441 308.11557129 842.09504883 308.23950195 841.04931641 C308.72271311 836.67384122 309.05208201 832.39611834 309.0078125 827.9921875 C309 824 309 824 310 821 C312.73748125 797.91577156 312.3629137 774.45108731 312.3125 751.25 C312.31027732 749.44076544 312.30810082 747.63153082 312.30596924 745.82229614 C312.26345828 719.77487608 311.88901695 693.91106627 309 668 C308.79386968 666.09473474 308.58781872 664.1894609 308.38183594 662.28417969 C300.74501197 592.59254852 286.34834179 522.51912102 260.91015625 457.00390625 C259.7031244 453.89311497 258.57694906 450.78030923 257.55078125 447.60546875 C242.56552316 401.83314157 218.78238138 357.15548868 194.35546875 315.84765625 C192.40962295 312.53502897 190.60428281 309.28645547 189.11328125 305.74609375 C186.42432593 299.9008332 183.85911927 297.11518339 177.88671875 294.7734375 C173.73854559 293.33634457 169.54835484 292.09713568 165.328125 290.890625 C159.47518456 289.21379833 154.0187214 287.05797122 148.5 284.5 C147.68257324 284.12125732 146.86514648 283.74251465 146.02294922 283.35229492 C143.67477114 282.24923365 141.3360182 281.12855275 139 280 C138.2997168 279.66500488 137.59943359 279.33000977 136.87792969 278.98486328 C132.20691443 276.74094419 127.59022918 274.4045645 123 272 C122.29697754 271.63326172 121.59395508 271.26652344 120.86962891 270.88867188 C102.92425661 261.44668209 86.54887481 249.98716324 71 237 C70.25878906 236.39027344 69.51757812 235.78054688 68.75390625 235.15234375 C59.30640751 227.15830636 50.60981471 218.1875751 43 208.4375 C41.00686377 205.9065016 41.00686377 205.9065016 38.4375 203.5625 C35.84477677 200.8368166 34.57439356 198.39600593 33 195 C31.79109645 193.00839171 30.56068831 191.0297258 29.3125 189.0625 C4.18784559 148.53511254 -5.24414208 101.9951553 -5.1875 54.75 C-5.18756042 53.97151703 -5.18762085 53.19303406 -5.18768311 52.39096069 C-5.17627427 42.00055851 -4.91971188 31.67645545 -4.125 21.3125 C-4.04660889 20.28801758 -3.96821777 19.26353516 -3.88745117 18.20800781 C-2.51273046 2.51273046 -2.51273046 2.51273046 0 0 Z " fill="#FBB536" transform="translate(3084,1150)"/>
<path d="M0 0 C0.33 0 0.66 0 1 0 C2.05556463 7.04286565 2.21162821 14.01244181 2.375 21.125 C3.08834354 45.75291844 5.16666621 70.29355746 8.125 94.75 C8.21117584 95.46612457 8.29735168 96.18224915 8.38613892 96.92007446 C8.91992731 104.17057667 8.91992731 104.17057667 11 111 C11.17083986 112.70766144 11.29730461 114.41984413 11.40234375 116.1328125 C11.99309735 123.79325904 13.24621233 131.31378692 14.5625 138.875 C14.68950287 139.61380402 14.81650574 140.35260803 14.94735718 141.11380005 C18.34323265 160.79907311 22.01365664 180.64744208 27 200 C27.26820557 201.06871338 27.53641113 202.13742676 27.81274414 203.23852539 C31.78887069 219.0182473 35.80076688 234.77417808 40.4375 250.375 C40.93165405 252.03801147 40.93165405 252.03801147 41.43579102 253.73461914 C42.79637707 258.24611082 44.23116331 262.63096415 46 267 C46.41939401 268.49358384 46.81360479 269.99438172 47.1875 271.5 C48.73231107 277.3069052 50.59805788 282.99010468 52.5 288.6875 C52.79672607 289.57824219 53.09345215 290.46898438 53.39916992 291.38671875 C57.17068254 302.61043966 61.57792922 313.56594763 65.97265625 324.55859375 C68.41160412 330.71909695 70.66074184 336.77130629 72.24414062 343.21142578 C72.49357422 343.80165527 72.74300781 344.39188477 73 345 C73.99 345.33 74.98 345.66 76 346 C75.67 346.66 75.34 347.32 75 348 C76.0599079 350.49522736 76.0599079 350.49522736 77.625 353.3125 C79.82977574 357.41427823 81.58144535 361.48108859 83.19921875 365.8515625 C86.34911103 374.17280466 90.25757453 382.08715142 94.1875 390.0625 C94.95505604 391.62843204 95.72230593 393.19451416 96.48925781 394.76074219 C97.98788996 397.8182956 99.49012763 400.87403442 100.99560547 403.92822266 C102.63407781 407.25298287 104.25937989 410.58393089 105.87890625 413.91796875 C115.04986375 432.6869941 125.66807147 450.65282145 136.49414062 468.50439453 C138.06577284 471.10900292 139.6206731 473.7230212 141.171875 476.33984375 C148.12604584 488.09476711 148.12604584 488.09476711 155.890625 499.3203125 C157 501 157 501 157 503 C157.66 503 158.32 503 159 503 C159.495 504.093125 159.99 505.18625 160.5 506.3125 C162.76684146 510.83044097 165.60748634 514.74146606 168.625 518.78515625 C170.81367793 521.74779102 172.93017418 524.74739455 175.03344727 527.77050781 C185.68266617 543.05205716 197.13550169 557.74684195 208.69677734 572.34521484 C210.07413037 574.09412807 211.43854566 575.85257177 212.80078125 577.61328125 C217.60326233 583.80671726 222.49855986 589.79307928 227.8125 595.5625 C230.17982291 598.2003741 232.40367181 600.92584874 234.625 603.6875 C237.68896453 607.4749006 240.85099717 610.96981472 244.34765625 614.35546875 C246.00845601 616.00841603 247.53622391 617.72251638 249.0625 619.5 C259.26113451 631.30589894 270.24553502 642.40970868 281.28857422 653.41894531 C283.39799657 655.52293737 285.50192439 657.63232035 287.60546875 659.7421875 C288.97363735 661.10969622 290.34211561 662.4768952 291.7109375 663.84375 C292.32568939 664.46052612 292.94044128 665.07730225 293.57382202 665.71276855 C297.30662083 669.42578768 301.15532921 672.9522383 305.14729309 676.38540649 C308.28849614 679.12289618 311.28891767 682.00913481 314.3125 684.875 C319.53466634 689.79040063 324.84899232 694.44520096 330.453125 698.921875 C333.0700833 701.05718453 335.56842779 703.28530363 338.0625 705.5625 C346.23453591 713.54895107 346.23453591 713.54895107 356 719 C357.68567898 720.64743495 359.34858523 722.31821975 361 724 C363.34440317 726.06370015 365.76045687 728.03455096 368.1875 730 C368.88456055 730.56468994 369.58162109 731.12937988 370.29980469 731.71118164 C378.30302758 738.12995144 386.6191888 744.08798158 395 750 C395.81017578 750.57395508 396.62035156 751.14791016 397.45507812 751.73925781 C406.46261391 758.11636778 415.52392078 764.41138001 424.6875 770.5625 C425.74614258 771.27708374 425.74614258 771.27708374 426.82617188 772.00610352 C431.7413477 775.28075206 436.80044225 778.20070409 442 781 C442 781.66 442 782.32 442 783 C442.95132813 783.32484375 442.95132813 783.32484375 443.921875 783.65625 C448.26970373 785.55428691 452.20596389 788.03031261 456.25 790.5 C458.05960747 791.59422703 459.86950776 792.68796993 461.6796875 793.78125 C462.58041992 794.32652344 463.48115234 794.87179687 464.40917969 795.43359375 C478.06093031 803.68742263 491.92605729 811.48798762 506 819 C507.02351563 819.54672363 508.04703125 820.09344727 509.1015625 820.65673828 C548.07760791 841.38371083 588.50427941 858.95336215 630 874 C630.63113708 874.23013794 631.26227417 874.46027588 631.91253662 874.6973877 C671.06258995 888.96119899 711.31558763 900.0713702 752 909 C753.1039209 909.24508301 754.2078418 909.49016602 755.34521484 909.74267578 C844.11724389 929.22435241 936.37815751 933.9249314 1185 901 C1185.57564697 900.85973389 1186.15129395 900.71946777 1186.74438477 900.57495117 C1192.45481419 899.11937575 1198.12461232 897.49960637 1203.80371094 895.92675781 C1205.41277337 895.48161599 1207.02214061 895.03757427 1208.63183594 894.59472656 C1244.80589051 884.64199744 1280.32243272 872.3079975 1315 858 C1316.18239258 857.51354004 1317.36478516 857.02708008 1318.58300781 856.52587891 C1346.33125283 845.0372818 1373.55842157 832.24079076 1400 818 C1401.78118032 817.05195241 1403.56243073 816.10403649 1405.34375 815.15625 C1448.27740955 792.16704655 1491.24727394 765.77736051 1528.83984375 734.6484375 C1531 733 1531 733 1533 733 C1533 732.34 1533 731.68 1533 731 C1534.3681543 730.05778053 1535.74345879 729.12481373 1537.14648438 728.23535156 C1540.70297783 725.86498053 1543.94872809 723.08373593 1547.25 720.375 C1548.32894531 719.49714844 1548.32894531 719.49714844 1549.4296875 718.6015625 C1553.32805131 715.4274406 1553.32805131 715.4274406 1557 712 C1558.15810456 711.13426007 1559.32616817 710.28179298 1560.5 709.4375 C1564.75574917 706.27652689 1568.65008018 702.79512495 1572.5625 699.22265625 C1574.68574419 697.28655698 1576.83116416 695.3846134 1579 693.5 C1583.71595616 689.38768623 1588.36384916 685.20192922 1593 681 C1593.49081055 680.55575684 1593.98162109 680.11151367 1594.48730469 679.65380859 C1600.17487687 674.49955929 1605.76756166 669.28964472 1611.15234375 663.81640625 C1612.97839692 662.0212377 1614.86614517 660.35074867 1616.8125 658.6875 C1624.12897265 652.37920271 1630.86173084 645.44104651 1637.125 638.09375 C1639.48346469 635.4601311 1641.98465622 632.98195239 1644.5 630.5 C1648.2259842 626.81852949 1651.79856244 623.06704855 1655.19921875 619.08203125 C1657.37324202 616.56846422 1659.62390488 614.13223771 1661.875 611.6875 C1665.94540056 607.22477168 1669.80176909 602.63742 1673.59375 597.9375 C1676.29779561 594.63645731 1679.08134586 591.41256001 1681.875 588.1875 C1686.02737161 583.37630671 1690.06881866 578.49378914 1694 573.5 C1694.44456543 572.93692139 1694.88913086 572.37384277 1695.34716797 571.79370117 C1697.42522907 569.13081317 1699.37899121 566.44331919 1701.1875 563.59375 C1701.785625 562.7378125 1702.38375 561.881875 1703 561 C1703.66 561 1704.32 561 1705 561 C1705.2686084 560.42580322 1705.5372168 559.85160645 1705.81396484 559.26000977 C1707.03320524 556.93672686 1708.40997395 554.94312948 1709.9765625 552.83984375 C1710.85405151 551.65648438 1710.85405151 551.65648438 1711.74926758 550.44921875 C1712.36825928 549.62035156 1712.98725098 548.79148437 1713.625 547.9375 C1714.89205441 546.22795895 1716.1589821 544.51832396 1717.42578125 542.80859375 C1719.09102036 540.56741386 1720.75695597 538.32675456 1722.42333984 536.08642578 C1723.55655619 534.56020698 1724.68480192 533.03030067 1725.8125 531.5 C1726.41707031 530.6853125 1727.02164063 529.870625 1727.64453125 529.03125 C1729.16384349 526.94771186 1729.16384349 526.94771186 1730 524 C1730.66 524 1731.32 524 1732 524 C1732.37777588 523.19006592 1732.37777588 523.19006592 1732.76318359 522.36376953 C1734.26151744 519.50019506 1735.99965091 516.87160693 1737.7890625 514.1796875 C1738.5657865 513.00606916 1739.34230753 511.83231647 1740.11865234 510.65844727 C1740.52702332 510.04236603 1740.93539429 509.42628479 1741.35614014 508.79153442 C1750.89305774 494.38660965 1760.07809965 479.79540641 1769 465 C1769.61166016 463.98695801 1770.22332031 462.97391602 1770.85351562 461.93017578 C1779.15402475 448.16164695 1779.15402475 448.16164695 1786.5546875 433.8984375 C1788.36389744 430.27023811 1790.3641218 426.76924657 1792.375 423.25 C1806.00526911 399.22672107 1817.69266362 373.62094551 1828 348 C1828.37398926 347.07799805 1828.74797852 346.15599609 1829.13330078 345.20605469 C1831.70012405 338.87517655 1834.23095498 332.5308432 1836.73974609 326.17675781 C1837.92349883 323.19283867 1839.12619384 320.21723283 1840.33203125 317.2421875 C1852.70154558 286.33390231 1862.73124665 254.23687275 1871 222 C1871.3304834 220.73124023 1871.6609668 219.46248047 1872.00146484 218.15527344 C1876.92964107 199.22600283 1881.355012 180.22289146 1885 161 C1885.13857422 160.27037048 1885.27714844 159.54074097 1885.41992188 158.78900146 C1890.30142016 132.97575344 1894.11790606 107.11077462 1897 81 C1897.07885437 80.29182129 1897.15770874 79.58364258 1897.23895264 78.85400391 C1899.33185637 59.9716337 1900.53500353 41.09523451 1901.35424805 22.12109375 C1901.3909108 21.29259918 1901.42757355 20.46410461 1901.46534729 19.61050415 C1901.53312834 18.06098937 1901.59768124 16.51132845 1901.65830994 14.96151733 C1901.83509678 10.90270677 1902.24057501 6.99148759 1903 3 C1905 5 1905 5 1905.24723816 7.13197327 C1905.24510063 8.45315407 1905.24510063 8.45315407 1905.24291992 9.80102539 C1905.24599655 10.79868423 1905.24907318 11.79634308 1905.25224304 12.82423401 C1905.24505753 13.90446335 1905.23787201 14.98469269 1905.23046875 16.09765625 C1905.22978142 17.75455727 1905.22978142 17.75455727 1905.2290802 19.44493103 C1905.22605547 21.78271558 1905.21816264 24.12049808 1905.20581055 26.45825195 C1905.18755834 30.05101603 1905.18530078 33.64352254 1905.18554688 37.23632812 C1905.18063174 39.50260641 1905.17480344 41.76888294 1905.16796875 44.03515625 C1905.16685593 45.11740982 1905.1657431 46.19966339 1905.16459656 47.31471252 C1905.15821671 48.30921921 1905.15183685 49.30372589 1905.14526367 50.32836914 C1905.13954597 51.64835655 1905.13954597 51.64835655 1905.13371277 52.99501038 C1905 55 1905 55 1904 56 C1903.80425638 58.29299668 1903.67470814 60.59165764 1903.5703125 62.890625 C1903.49812466 64.38282021 1903.42576972 65.87500734 1903.35327148 67.3671875 C1903.31628143 68.1622168 1903.27929138 68.95724609 1903.24118042 69.77636719 C1902.39020422 87.89476152 1901.06678527 105.95483657 1899.50299072 124.02435303 C1899.02545474 129.56413613 1898.62937834 135.10790659 1898.26586914 140.65625 C1898 143 1898 143 1897 144 C1897 145.155 1897 146.31 1897 147.5 C1897 148.655 1897 149.81 1897 151 C1896.67 151.33 1896.34 151.66 1896 152 C1895.6457564 154.83394882 1895.33840307 157.65828274 1895.0625 160.5 C1894.54544878 165.56979443 1894.02028378 170.53829368 1892.8125 175.5 C1891.64791476 178.82740125 1891.64791476 178.82740125 1893 181 C1892.34 181 1891.68 181 1891 181 C1890.88970459 181.90081299 1890.77940918 182.80162598 1890.66577148 183.72973633 C1889.47093666 193.12083556 1887.92487866 202.40515123 1886.0625 211.6875 C1885.91848755 212.41146973 1885.7744751 213.13543945 1885.62609863 213.88134766 C1880.09617886 241.49371299 1873.2154402 269.06179734 1865 296 C1864.5373877 297.53358154 1864.5373877 297.53358154 1864.06542969 299.09814453 C1859.43998146 314.39787595 1854.51445439 329.50259914 1848.99609375 344.5078125 C1847.5742656 348.38022278 1846.22091113 352.26177854 1844.97680664 356.19482422 C1843.32399439 361.30815516 1841.52995111 366.19705238 1839.21484375 371.05078125 C1835.99838183 377.92572917 1833.09286018 384.90122419 1830.25 391.9375 C1829.76917969 393.11634766 1829.28835938 394.29519531 1828.79296875 395.50976562 C1826.23664493 401.77292615 1826.23664493 401.77292615 1823.96337891 408.14160156 C1823.17306293 410.48651274 1822.32310298 412.57741507 1821.1953125 414.76953125 C1820.86144531 415.42574463 1820.52757813 416.08195801 1820.18359375 416.75805664 C1819.83425781 417.43602295 1819.48492188 418.11398926 1819.125 418.8125 C1815.91347977 425.11682788 1815.91347977 425.11682788 1813 431.5625 C1811.10501127 435.93805337 1808.83606078 440.08688671 1806.56567383 444.27734375 C1801.27368228 454.11753546 1796.37662254 464.16471325 1791.40698242 474.17016602 C1790.71052612 475.57093384 1790.71052612 475.57093384 1790 477 C1789.47937988 478.05550049 1788.95875977 479.11100098 1788.42236328 480.19848633 C1787.00676079 482.98668382 1785.41832336 485.52279661 1783.6875 488.125 C1781.19040622 491.98842811 1779.00524769 495.86048064 1777 500 C1774.6202438 504.88476272 1771.9516539 509.41170827 1768.98046875 513.95703125 C1766.61979203 517.58418542 1764.34298327 521.25963632 1762.0625 524.9375 C1758.35957865 530.89376038 1754.54408015 536.75089879 1750.59375 542.546875 C1749.2202353 544.66101036 1748.10993718 546.74373425 1747 549 C1746.10666262 550.43149242 1745.18831227 551.84757628 1744.25 553.25 C1743.78078125 553.95640625 1743.3115625 554.6628125 1742.828125 555.390625 C1741.30199582 557.56894613 1739.73511686 559.69437281 1738.1328125 561.81640625 C1735.68832755 565.05784164 1733.33362676 568.34759657 1731.01806641 571.68188477 C1723.90997447 581.91549417 1716.37261702 591.80315921 1708.77587891 601.67675781 C1707.145423 603.80975456 1705.53805653 605.95781603 1703.9375 608.11328125 C1700.33931827 612.92716285 1696.50814765 617.54457946 1692.6796875 622.17578125 C1690.29899383 625.07865537 1688.0495489 627.92423067 1685.9921875 631.0703125 C1683.5591076 634.64837118 1680.73943947 637.63560283 1677.75 640.75 C1673.25257886 645.50865085 1668.96651654 650.32326043 1664.9765625 655.5234375 C1658.93856121 663.08883832 1652.21388502 669.87044208 1645.31640625 676.64453125 C1641.95246879 679.97197029 1638.67390397 683.31231547 1635.58984375 686.90234375 C1631.32120799 691.86108172 1626.69740228 696.44846 1622.0625 701.0625 C1621.20720703 701.92166016 1620.35191406 702.78082031 1619.47070312 703.66601562 C1615.08492044 708.04510757 1610.62829784 712.24926835 1605.92749023 716.28637695 C1601.73938461 720.00978587 1597.89733872 724.10401657 1594 728.12695312 C1590.18393209 732.00637373 1586.30447302 735.38778904 1581.89746094 738.5769043 C1578.93693286 740.79730035 1576.29863227 743.3228013 1573.625 745.875 C1568.28936597 750.8768204 1562.78544646 755.52122198 1557 760 C1555.41011792 761.25305965 1553.82027724 762.50617226 1552.23120117 763.76025391 C1546.09360541 768.5986632 1539.92271625 773.39404006 1533.75 778.1875 C1523.01329041 786.17818131 1523.01329041 786.17818131 1513 795 C1512.44054688 795.27457031 1511.88109375 795.54914062 1511.3046875 795.83203125 C1508.04223292 797.48537687 1505.11784349 799.59861587 1502.125 801.6875 C1500.7047296 802.67100992 1499.28413768 803.65405564 1497.86328125 804.63671875 C1496.70626709 805.43795166 1496.70626709 805.43795166 1495.52587891 806.25537109 C1490.79932361 809.52001097 1486.0562119 812.76036312 1481.3125 816 C1480.36842285 816.64670654 1479.4243457 817.29341309 1478.45166016 817.9597168 C1477.55624512 818.57113525 1476.66083008 819.18255371 1475.73828125 819.8125 C1474.54779175 820.62654297 1474.54779175 820.62654297 1473.33325195 821.45703125 C1470.92901674 823.0469409 1468.47708717 824.52668697 1466 826 C1464.58908719 826.88529136 1463.18149903 827.77590418 1461.77734375 828.671875 C1460.60631104 829.41655029 1460.60631104 829.41655029 1459.41162109 830.17626953 C1458.59516113 830.69560059 1457.77870117 831.21493164 1456.9375 831.75 C1450.39761041 835.90535875 1443.82559217 839.92536281 1437.0546875 843.6953125 C1434.86680249 844.8369451 1434.86680249 844.8369451 1434 847 C1433.34 847 1432.68 847 1432 847 C1431.67 847.66 1431.34 848.32 1431 849 C1430.01 849 1429.02 849 1428 849 C1425.77464275 850.02765475 1425.77464275 850.02765475 1423.37890625 851.45703125 C1421.99155273 852.25197998 1421.99155273 852.25197998 1420.57617188 853.06298828 C1419.58166016 853.64032715 1418.58714844 854.21766602 1417.5625 854.8125 C1415.46006055 856.01506648 1413.35718857 857.21687705 1411.25390625 858.41796875 C1410.1983252 859.02302246 1409.14274414 859.62807617 1408.05517578 860.25146484 C1393.84501998 868.38420704 1379.4410353 875.80918967 1364.61230469 882.75292969 C1362.07559325 883.96391305 1359.57291064 885.22808615 1357.0703125 886.5078125 C1352.53990468 888.78836845 1347.91897276 890.75405051 1343.22607422 892.67431641 C1339.76231417 894.09767172 1336.31976332 895.56513802 1332.87890625 897.04296875 C1331.67685547 897.55923828 1330.47480469 898.07550781 1329.23632812 898.60742188 C1327.38451282 899.40386982 1325.53269792 900.20031872 1323.6809082 900.99682617 C1321.8512876 901.78353681 1320.02135083 902.569512 1318.19140625 903.35546875 C1317.12092041 903.81590576 1316.05043457 904.27634277 1314.94750977 904.75073242 C1312.3105354 905.8683832 1309.66302195 906.94628227 1307 908 C1305.84886719 908.46277344 1304.69773437 908.92554687 1303.51171875 909.40234375 C1302.23698567 909.9140787 1300.96224596 910.42579712 1299.6875 910.9375 C1299.06166016 911.18951172 1298.43582031 911.44152344 1297.79101562 911.70117188 C1284.70050303 916.95080308 1271.33710901 921.42493979 1258 926 C1256.99275879 926.34756348 1255.98551758 926.69512695 1254.94775391 927.05322266 C1185.28630181 951.04080847 1111.99789547 966.00429579 1038.64990234 972.66015625 C1035.45417325 972.95771176 1032.26343183 973.28841314 1029.07173157 973.62582397 C1005.01505289 976.10493476 980.94434528 976.29644534 956.78537369 976.31052017 C954.23690153 976.31246235 951.68845073 976.31756485 949.13998413 976.3230896 C927.02094042 976.35866676 905.02181006 975.6995967 882.94941711 974.25782776 C877.77369821 973.91994397 872.59685302 973.60152131 867.42002869 973.28102112 C855.96224258 972.53530352 844.68270807 971.31120231 833.34619141 969.515625 C829.25974232 968.8859314 825.16741295 968.30267454 821.07421875 967.71875 C744.86343154 956.77925978 670.55063107 937.56399002 599 909 C598.0929834 908.64164063 597.1859668 908.28328125 596.25146484 907.9140625 C590.16534828 905.50202022 584.1394611 902.96001193 578.125 900.375 C577.20203125 899.98054688 576.2790625 899.58609375 575.328125 899.1796875 C574.43867188 898.798125 573.54921875 898.4165625 572.6328125 898.0234375 C571.83762207 897.68231934 571.04243164 897.34120117 570.22314453 896.98974609 C568.80367673 896.35779766 567.39639569 895.69719936 566.00756836 895.00048828 C563.78753338 893.89411551 561.53328798 892.92856874 559.24609375 891.96875 C547.46839249 886.97516036 536.0907879 881.59694276 524.84130859 875.51757812 C519.47332 872.65046891 514.06084009 869.86851388 508.65313721 867.07723999 C506.7257369 866.08223941 504.79906678 865.08583793 502.87255859 864.08911133 C496.3349981 860.70466973 496.3349981 860.70466973 489.76049805 857.39282227 C487.07545617 856.03807176 484.63193898 854.53294367 482.125 852.875 C477.77779037 850.06997317 473.34401779 847.49135643 468.8125 845 C453.42170997 836.48679179 438.50157178 826.94851951 424 817 C422.77738815 816.16660153 421.55472842 815.33327329 420.33203125 814.5 C416.20932487 811.68396039 412.10316292 808.84441224 408 806 C407.32839844 805.53609863 406.65679688 805.07219727 405.96484375 804.59423828 C375.05573844 783.20650718 345.13658516 759.63291073 317.4296875 734.21484375 C315.39484585 732.35993183 313.33678753 730.54571202 311.25 728.75 C298.65849662 717.7630984 286.81348757 705.97383264 275.01757812 694.14794922 C272.4790115 691.60396672 269.9350667 689.06544872 267.390625 686.52734375 C265.74967888 684.8857376 264.10904256 683.24382169 262.46875 681.6015625 C261.7207312 680.85556793 260.9727124 680.10957336 260.20202637 679.3409729 C255.60178203 674.72035795 251.23470414 669.95709882 247 665 C246.31550781 664.21109375 245.63101562 663.4221875 244.92578125 662.609375 C243.84174859 661.35998143 242.75842582 660.10997159 241.67578125 658.859375 C240.50868849 657.56441893 239.29731141 656.30859958 238.0546875 655.0859375 C235.80002269 652.79698121 233.81987215 650.38330109 231.8125 647.875 C228.84546587 644.21097905 225.81810992 640.65577918 222.625 637.1875 C218.64810056 632.81841497 214.99198791 628.26591112 211.37426758 623.60107422 C207.75942096 618.94366401 204.05066103 614.37128564 200.3125 609.8125 C195.31350616 603.69039695 190.57602338 597.44615228 186 591 C184.39314771 588.77492438 182.78205023 586.55295158 181.17114258 584.33081055 C172.51883053 572.38620908 164.12174918 560.31079842 156 548 C155.5879834 547.37834961 155.1759668 546.75669922 154.75146484 546.11621094 C135.03720004 516.31575866 117.60508846 485.24409291 101.32421875 453.45703125 C98.2164329 447.39435876 95.01215871 441.3928405 91.7109375 435.43359375 C89.7763333 431.55113464 88.13718569 427.5957225 86.49023438 423.58422852 C84.77894131 419.46832197 83.00615304 415.38187587 81.22265625 411.296875 C80.53709228 409.7226637 79.85154567 408.14844483 79.16601562 406.57421875 C78.11722256 404.16728868 77.06727162 401.76089418 76.01391602 399.35595703 C72.33551011 390.95235337 68.73382862 382.53795306 65.49609375 373.953125 C65.24094498 373.2790863 64.9857962 372.60504761 64.72291565 371.9105835 C63 367.25617648 63 367.25617648 63 365 C62.34 364.67 61.68 364.34 61 364 C60.36157227 362.31469727 60.36157227 362.31469727 59.75390625 360.00390625 C58.42090225 355.29629301 56.87071593 350.69192677 55.21484375 346.08984375 C54.68422708 344.60965466 54.15371257 343.12942894 53.62329102 341.64916992 C53.34865021 340.88317474 53.0740094 340.11717957 52.79104614 339.32797241 C35.01009161 289.52998358 21.723734 238.15907653 13 186 C12.84658142 185.09028442 12.69316284 184.18056885 12.53509521 183.24328613 C7.89930177 155.68107288 4.39851502 128.12545025 2.18426514 100.2644043 C2.01485606 98.18256376 1.83064697 96.10194151 1.64501953 94.02148438 C-1.13194811 62.81051372 -0.18760679 31.30332053 0 0 Z " fill="#FAB638" transform="translate(1609,1986)"/>
<path d="M0 0 C3.01541021 2.80468203 5.08624434 5.5365447 7.1015625 9.12109375 C7.66915283 10.12793213 8.23674316 11.13477051 8.8215332 12.17211914 C9.41667725 13.24969482 10.01182129 14.32727051 10.625 15.4375 C11.24528076 16.55697021 11.86556152 17.67644043 12.50463867 18.82983398 C44.26389955 76.69889156 62.74925524 145.78525596 44 210.875 C43.00047344 214.24114902 41.98190183 217.59965936 40.9375 220.95214844 C40.32996001 222.92728626 39.74510318 224.90960177 39.1875 226.89941406 C38.94 227.78081055 38.6925 228.66220703 38.4375 229.5703125 C38.22996094 230.33359863 38.02242187 231.09688477 37.80859375 231.88330078 C36.88419623 234.30314575 35.57466545 235.95155015 34 238 C33.18743663 239.57552259 32.41899589 241.17430418 31.6875 242.7890625 C31.04288818 244.18765503 31.04288818 244.18765503 30.38525391 245.61450195 C29.92812012 246.60796631 29.47098633 247.60143066 29 248.625 C17.38232614 273.31207369 1.63745442 295.6640061 -16.95703125 315.61328125 C-19.07640909 317.97505901 -19.07640909 317.97505901 -20.765625 320.78125 C-23.72898349 325.05014405 -27.25114101 328.54146582 -30.9375 332.1875 C-31.64068359 332.89841797 -32.34386719 333.60933594 -33.06835938 334.34179688 C-36.52751244 337.78798217 -39.70231961 340.62398606 -44 343 C-46.10461819 344.83479535 -48.11604699 346.74143019 -50.1328125 348.671875 C-51.05707031 349.32929687 -51.05707031 349.32929687 -52 350 C-55.45187183 348.84937606 -55.66349999 348.36951144 -57.3828125 345.34375 C-57.82310791 344.57772461 -58.26340332 343.81169922 -58.71704102 343.02246094 C-59.18166748 342.19004883 -59.64629395 341.35763672 -60.125 340.5 C-60.61218506 339.63922852 -61.09937012 338.77845703 -61.60131836 337.89160156 C-63.07909534 335.26733583 -64.54101106 332.63474756 -66 330 C-66.40589355 329.27619141 -66.81178711 328.55238281 -67.22998047 327.80664062 C-99.44930607 270.17857858 -113.76900049 202.12210641 -96.36035156 137.63037109 C-91.11972206 119.33661741 -82.60590081 101.90766638 -74 85 C-73.34 85 -72.68 85 -72 85 C-71.72583252 84.27256592 -71.45166504 83.54513184 -71.16918945 82.7956543 C-67.80895206 74.76097516 -62.48811361 67.63694612 -57.3125 60.6875 C-56.7038208 59.86644775 -56.0951416 59.04539551 -55.46801758 58.19946289 C-50.2505985 51.22129283 -44.78749666 44.51316331 -39 38 C-38.04130005 36.91211182 -38.04130005 36.91211182 -37.06323242 35.80224609 C-31.67617822 29.7426336 -26.09455546 23.90826573 -20.36108398 18.17578125 C-18.92986431 16.74235252 -17.50688694 15.30105451 -16.08398438 13.859375 C-11.00764817 8.77244102 -5.93801437 4.06413714 0 0 Z " fill="#FCB535" transform="translate(1662,1626)"/>
<path d="M0 0 C0.33 0.66 0.66 1.32 1 2 C2.65984798 2.68346682 4.32836805 3.34588315 6 4 C36.65614863 20.19570116 60.42379724 50.24502219 79.74609375 78.19238281 C80.76743706 79.66473987 81.80346892 81.12689921 82.84375 82.5859375 C86.58690358 87.94183279 89.47383154 93.67631035 92.31640625 99.54296875 C94.2149378 103.44134559 96.22015269 107.2780382 98.25 111.109375 C98.4975 111.73328125 98.745 112.3571875 99 113 C98 115 98 115 96.20361328 115.7902832 C93.51527727 116.6481163 90.82621652 117.49587373 88.125 118.3125 C87.10720459 118.62082764 86.08940918 118.92915527 85.04077148 119.24682617 C61.99881987 125.96906738 37.94186044 129.11218986 14 130 C12.96101563 130.04253906 11.92203125 130.08507813 10.8515625 130.12890625 C-14.20221043 130.63266844 -39.07258937 126.65018746 -62.61328125 118.13671875 C-65.87861372 116.84090235 -65.87861372 116.84090235 -69 117 C-69 116.34 -69 115.68 -69 115 C-69.83660156 114.7421875 -70.67320313 114.484375 -71.53515625 114.21875 C-98.77730414 104.63639358 -124.81020186 83.0556389 -143 61 C-143.79277344 60.09507813 -144.58554688 59.19015625 -145.40234375 58.2578125 C-187 10.64906636 -187 10.64906636 -187 -8 C-127.88984933 -27.40519498 -55.7302348 -32.71612974 0 0 Z " fill="#FCB535" transform="translate(1490,1941)"/>
<path d="M0 0 C0.67957764 0.22155762 1.35915527 0.44311523 2.05932617 0.67138672 C4.53008483 1.56699928 6.22471388 2.24274439 7.70703125 4.46875 C7.47548041 8.12349835 5.6373086 10.91772899 3.8125 14 C3.20329712 15.05247925 3.20329712 15.05247925 2.58178711 16.1262207 C-4.18837481 27.63126381 -11.98906707 38.40849529 -20.24609375 48.8828125 C-22.48288039 51.73500747 -22.48288039 51.73500747 -24.453125 54.84375 C-26.35828977 57.63399131 -28.31394667 59.79711955 -30.75 62.125 C-33.51997412 64.81890052 -36.11995612 67.50835711 -38.5625 70.5 C-52.24581501 86.34879376 -71.14322088 99.76566461 -89.4375 109.75 C-90.06446777 110.09369629 -90.69143555 110.43739258 -91.33740234 110.79150391 C-105.23542693 118.30652304 -119.77589306 123.82359689 -135.125 127.5625 C-135.91865967 127.75739014 -136.71231934 127.95228027 -137.5300293 128.15307617 C-152.12000078 131.49394259 -166.66060083 132.16008164 -181.5625 132.125 C-182.93512497 132.12368576 -182.93512497 132.12368576 -184.33547974 132.12234497 C-217.02833004 132.01977944 -252.80962554 127.56393723 -282.4375 112.75 C-282.04029219 106.70469093 -279.22805401 102.67551821 -276 97.75 C-275.45867432 96.91057861 -274.91734863 96.07115723 -274.35961914 95.20629883 C-262.40120773 76.79943204 -249.21259309 59.36726386 -233.578125 43.92578125 C-232.61457098 42.97136663 -231.65102938 42.01693948 -230.6875 41.0625 C-230.19378906 40.57716797 -229.70007812 40.09183594 -229.19140625 39.59179688 C-226.47134724 36.93159783 -226.47134724 36.93159783 -224.4375 33.75 C-222.77237377 32.74743708 -221.10541432 31.74791762 -219.4375 30.75 C-217.68646905 29.29678219 -215.95928417 27.81459821 -214.25 26.3125 C-196.9184286 11.53578175 -175.52770816 -1.24696814 -153.4375 -7.25 C-152.05854736 -7.64436907 -150.67964359 -8.03890906 -149.30078125 -8.43359375 C-99.99525618 -22.17963972 -48.05143482 -16.15645513 0 0 Z " fill="#FCB535" transform="translate(1918.4375,1932.25)"/>
<path d="M0 0 C1.61588178 2.97295052 3.2154425 5.95440095 4.8125 8.9375 C5.26431641 9.76830078 5.71613281 10.59910156 6.18164062 11.45507812 C9.06175891 16.85792776 11.21675582 22.15288693 13 28 C13.50712571 29.52497259 14.01888661 31.0484112 14.53515625 32.5703125 C15.04427083 34.08854167 15.55338542 35.60677083 16.0625 37.125 C16.31837891 37.88425781 16.57425781 38.64351562 16.83789062 39.42578125 C19.53465479 47.48141098 21.56361878 55.45182037 23.0625 63.8125 C23.23587891 64.74642578 23.40925781 65.68035156 23.58789062 66.64257812 C27.19880188 86.57868202 26.85585962 106.13330218 23 126 C22.86609863 126.71526855 22.73219727 127.43053711 22.59423828 128.16748047 C20.47873382 139.0834835 16.35101057 148.30289632 11 158 C10.62117676 158.69722168 10.24235352 159.39444336 9.85205078 160.11279297 C4.49787226 169.95393977 -0.86857507 179.76040241 -8.36425781 188.16162109 C-9.42876149 189.35799613 -10.48431985 190.56241101 -11.52929688 191.77587891 C-21.05889708 202.83559199 -31.39660903 213.5142815 -42.875 222.5625 C-43.43904541 223.00891846 -44.00309082 223.45533691 -44.58422852 223.9152832 C-47.36443697 226.03011353 -49.60036768 227.28594068 -53 228 C-75.52204303 183.04311212 -75.52204303 183.04311212 -75 165 C-75.66 164.67 -76.32 164.34 -77 164 C-77.41064453 162.15258789 -77.41064453 162.15258789 -77.6328125 159.72265625 C-77.71700439 158.82603271 -77.80119629 157.92940918 -77.88793945 157.00561523 C-78.00528442 155.54877319 -78.00528442 155.54877319 -78.125 154.0625 C-78.2077417 153.06484619 -78.2904834 152.06719238 -78.37573242 151.03930664 C-80.97132507 117.57403451 -75.10175838 85.90543407 -56.56640625 57.50390625 C-54.87614132 55.02017287 -54.87614132 55.02017287 -54 52 C-53.34 52 -52.68 52 -52 52 C-51.76023437 51.46246094 -51.52046875 50.92492188 -51.2734375 50.37109375 C-45.56201097 39.73662779 -36.28395725 30.66157353 -28 22 C-27.04480469 20.98292969 -27.04480469 20.98292969 -26.0703125 19.9453125 C-6.86031106 0 -6.86031106 0 0 0 Z " fill="#FCB536" transform="translate(3391,1319)"/>
<path d="M0 0 C1.95106485 0.29644086 3.88733549 0.69109578 5.8125 1.125 C6.87082031 1.35445312 7.92914062 1.58390625 9.01953125 1.8203125 C18.97181691 4.49092185 28.37718004 9.4901186 37.625 13.9375 C38.67945312 14.43701172 39.73390625 14.93652344 40.8203125 15.45117188 C50.01987396 19.86309027 58.7138178 24.85615545 67 30.8125 C67.59176025 31.2362793 68.18352051 31.66005859 68.79321289 32.09667969 C73.40446908 35.4532699 77.66768855 39.09548572 81.8359375 42.9921875 C83.69125078 44.71354315 85.58720874 46.29657091 87.5625 47.875 C92.37772446 51.9781138 96.13438571 57.02419199 100 62 C100.68320313 62.8559375 101.36640625 63.711875 102.0703125 64.59375 C114.25990067 80.46411577 121.1949321 99.77972838 126 119 C126.34417969 120.08667969 126.68835937 121.17335938 127.04296875 122.29296875 C128.24583373 126.95222941 128.66228414 131.52731034 129.0625 136.3125 C129.21649043 138.10057072 129.37387455 139.88835344 129.53515625 141.67578125 C129.63389038 142.8500769 129.63389038 142.8500769 129.73461914 144.0480957 C129.90338251 146.0756308 129.90338251 146.0756308 131 148 C131.01655737 150.41142224 130.97328468 152.78781007 130.87890625 155.1953125 C130.85529526 155.90275604 130.83168427 156.61019958 130.80735779 157.33908081 C130.73071166 159.60125755 130.64669188 161.86309273 130.5625 164.125 C130.50928023 165.6575353 130.45653982 167.19008734 130.40429688 168.72265625 C130.27509533 172.48198761 130.13927963 176.24102908 130 180 C130.66 180.33 131.32 180.66 132 181 C131.34 181 130.68 181 130 181 C129.01 188.425 129.01 188.425 128 196 C120.11111111 194.87301587 120.11111111 194.87301587 116.3984375 193.58203125 C115.17894409 193.15978271 115.17894409 193.15978271 113.93481445 192.72900391 C113.09007568 192.42655762 112.24533691 192.12411133 111.375 191.8125 C110.4883667 191.49716309 109.6017334 191.18182617 108.68823242 190.85693359 C101.58727838 188.29038595 94.7439072 185.40429848 88 182 C87.0404541 181.52506104 87.0404541 181.52506104 86.06152344 181.04052734 C67.84182368 171.98226699 51.25997701 160.58512307 37 146 C36.30519531 145.29101562 35.61039063 144.58203125 34.89453125 143.8515625 C7.32966649 114.37318931 -3.21309591 73.53715586 -3.1875 34 C-3.18737915 32.24453857 -3.18737915 32.24453857 -3.18725586 30.45361328 C-3.00899532 3.00899532 -3.00899532 3.00899532 0 0 Z " fill="#FBB536" transform="translate(2607,1164)"/>
<path d="M0 0 C0.6717627 0.00054382 1.34352539 0.00108765 2.03564453 0.00164795 C29.22196015 0.10223667 54.77854294 7.85043934 74.5078125 27.2109375 C76.77907877 29.45026333 76.77907877 29.45026333 79.4921875 30.8515625 C82.34124647 32.673092 83.24292548 34.44882824 84.875 37.375 C86.15921319 38.77645558 87.47462956 40.14967266 88.8125 41.5 C96.58216783 49.98061783 111.875 68.41148962 111.875 80.375 C77.75759137 90.87676484 42.08303497 92.38615979 9.65234375 75.71875 C2.82692397 71.92205632 -3.20751087 67.45393994 -9.125 62.375 C-10.34123047 61.35986328 -10.34123047 61.35986328 -11.58203125 60.32421875 C-25.53793537 48.30236119 -36.03116579 33.2439521 -44.75 17.125 C-45.09313232 16.49287598 -45.43626465 15.86075195 -45.78979492 15.20947266 C-47.26950038 12.38580746 -48.125 10.6114456 -48.125 7.375 C-45.25261966 6.57269334 -42.37759904 5.78319974 -39.5 5 C-38.71109375 4.77828125 -37.9221875 4.5565625 -37.109375 4.328125 C-24.86470671 1.02400816 -12.6521536 -0.01748413 0 0 Z " fill="#FBB536" transform="translate(3228.125,1542.625)"/>
<path d="M0 0 C-1.092581 3.58487406 -2.09970828 6.55868341 -4.4375 9.5 C-5.24380859 10.5209375 -5.24380859 10.5209375 -6.06640625 11.5625 C-6.70449219 12.366875 -7.34257812 13.17125 -8 14 C-8.75152344 15.010625 -9.50304688 16.02125 -10.27734375 17.0625 C-21.17345094 31.5990797 -33.73005514 44.1227866 -49 54 C-49.82371094 54.56976562 -50.64742187 55.13953125 -51.49609375 55.7265625 C-56.47121391 58.99856395 -61.67586925 61.17325013 -67.25 63.1875 C-67.90460205 63.4256543 -68.5592041 63.66380859 -69.23364258 63.90917969 C-81.11949208 67.98204317 -92.71716871 69.50884425 -105.25 69.375 C-105.92365601 69.3713443 -106.59731201 69.3676886 -107.29138184 69.36392212 C-118.11641688 69.29522885 -128.45754947 68.4805766 -139 66 C-139.97710938 65.7834375 -140.95421875 65.566875 -141.9609375 65.34375 C-150.20196843 63.31370133 -158.09940264 60.06309233 -166 57 C-165.50252903 52.25625898 -163.25577693 49.1119359 -160.5 45.375 C-157.24278994 40.97302542 -157.24278994 40.97302542 -155 36 C-153.8990623 34.83897213 -152.78743904 33.68672998 -151.63232422 32.57958984 C-149.65574884 30.66687032 -147.75559959 28.68820964 -145.84765625 26.70703125 C-106.28908994 -13.94543487 -52.34081541 -24.55108108 0 0 Z " fill="#FBB536" transform="translate(2801,1433)"/>
<path d="M0 0 C2 2 2 2 2.24723816 4.13197327 C2.24510063 5.45315407 2.24510063 5.45315407 2.24291992 6.80102539 C2.24599655 7.79868423 2.24907318 8.79634308 2.25224304 9.82423401 C2.24505753 10.90446335 2.23787201 11.98469269 2.23046875 13.09765625 C2.22978142 14.75455727 2.22978142 14.75455727 2.2290802 16.44493103 C2.22605547 18.78271558 2.21816264 21.12049808 2.20581055 23.45825195 C2.18755834 27.05101603 2.18530078 30.64352254 2.18554688 34.23632812 C2.18063174 36.50260641 2.17480344 38.76888294 2.16796875 41.03515625 C2.16685593 42.11740982 2.1657431 43.19966339 2.16459656 44.31471252 C2.15821671 45.30921921 2.15183685 46.30372589 2.14526367 47.32836914 C2.14145187 48.20836075 2.13764008 49.08835236 2.13371277 49.99501038 C2 52 2 52 1 53 C0.7684708 55.73516465 0.59634069 58.45090561 0.46484375 61.19140625 C0.42186661 62.01124496 0.37888947 62.83108368 0.33460999 63.67576599 C0.1978294 66.3044715 0.0675985 68.93345612 -0.0625 71.5625 C-0.15386695 73.34051694 -0.24565821 75.11851212 -0.33789062 76.89648438 C-0.56352536 81.26408538 -0.78328505 85.63194768 -1 90 C-1.33 90 -1.66 90 -2 90 C-2 87.36 -2 84.72 -2 82 C-4.33075929 82.95865509 -4.33075929 82.95865509 -6 86 C-5.38959385 74.79096832 -4.60228115 63.60596545 -3.69940186 52.41696167 C-2.64526971 39.30935919 -1.67741025 26.22736039 -1.29101562 13.07983398 C-1.15467389 8.62752804 -0.87837232 4.38466182 0 0 Z " fill="#E1C355" transform="translate(3512,1989)"/>
<path d="M0 0 C0.33 0 0.66 0 1 0 C2.05553214 7.04264887 2.21321358 14.01252938 2.375 21.125 C2.76039714 35.31673546 3.78956665 49.42426224 4.98388672 63.56884766 C5.05029861 64.35920914 5.11671051 65.14957062 5.18513489 65.96388245 C5.31044573 67.44482783 5.43797076 68.92558826 5.56816101 70.40611267 C5.87126826 73.9488414 6.06847446 77.44406525 6 81 C5.360625 81.12375 4.72125 81.2475 4.0625 81.375 C3.0415625 81.684375 3.0415625 81.684375 2 82 C1.505 82.99 1.505 82.99 1 84 C-0.22420575 67.1992598 -0.11976367 50.39708882 -0.06866455 33.56384277 C-0.05827221 29.76847907 -0.05383351 25.97310832 -0.04882812 22.17773438 C-0.03823422 14.78513751 -0.02126062 7.39257472 0 0 Z " fill="#D5C45C" transform="translate(1609,1986)"/>
<path d="M0 0 C4.88192419 4.42049468 8.33481467 9.5774017 11.9375 15.0625 C12.55173828 15.96033203 13.16597656 16.85816406 13.79882812 17.78320312 C14.65444336 19.08354492 14.65444336 19.08354492 15.52734375 20.41015625 C16.05062256 21.19527588 16.57390137 21.98039551 17.11303711 22.78930664 C18 25 18 25 17.27954102 27.22436523 C16 29 16 29 14 30 C13.41992188 28.94941406 12.83984375 27.89882812 12.2421875 26.81640625 C11.45384725 25.39803583 10.66473349 23.98009516 9.875 22.5625 C9.26519287 21.4645813 9.26519287 21.4645813 8.64306641 20.34448242 C6.00057143 15.6358756 3.19744329 11.17974777 -0.1015625 6.89453125 C-1.32966158 4.30484407 -0.77184632 2.69216275 0 0 Z " fill="#E2BE4F" transform="translate(3270,1446)"/>
<path d="M0 0 C0.66 0 1.32 0 2 0 C2.66 9.24 3.32 18.48 4 28 C2.68 28.33 1.36 28.66 0 29 C-0.33 29.66 -0.66 30.32 -1 31 C-1.02465622 26.74585377 -1.04283899 22.49174502 -1.05493164 18.23754883 C-1.05997101 16.78929927 -1.06680253 15.34105483 -1.07543945 13.89282227 C-1.08752247 11.81525412 -1.09323211 9.73775303 -1.09765625 7.66015625 C-1.10289307 6.40855713 -1.10812988 5.15695801 -1.11352539 3.86743164 C-1 1 -1 1 0 0 Z " fill="#E4C053" transform="translate(1611,2039)"/>
<path d="M0 0 C2 2 2 2 2.24050903 4.13870239 C2.23606781 5.0225058 2.23162659 5.9063092 2.22705078 6.81689453 C2.22689972 7.81778107 2.22674866 8.8186676 2.22659302 9.84988403 C2.21627045 10.93325043 2.20594788 12.01661682 2.1953125 13.1328125 C2.1924826 14.23978485 2.18965271 15.3467572 2.18673706 16.48727417 C2.17551519 20.03329137 2.15040691 23.57905875 2.125 27.125 C2.1149728 29.52473594 2.1058465 31.92447583 2.09765625 34.32421875 C2.07556932 40.21623151 2.04207207 46.10809791 2 52 C1.01 52.495 1.01 52.495 0 53 C-0.33 50.03 -0.66 47.06 -1 44 C-1.33 44 -1.66 44 -2 44 C-2.14017992 35.15308953 -1.91518497 26.3392089 -1.5625 17.5 C-1.52326416 16.46166016 -1.48402832 15.42332031 -1.44360352 14.35351562 C-1.23823356 9.49401319 -0.97404514 4.78018791 0 0 Z " fill="#E8C761" transform="translate(3512,1989)"/>
<path d="M0 0 C5.08938811 1.59043379 8.87456643 4.7446951 13 8 C12.67 9.65 12.34 11.3 12 13 C10.85872377 11.85872377 9.71776264 10.71713121 8.578125 9.57421875 C7.42694314 8.42588635 6.26987213 7.28344889 5.109375 6.14453125 C4.47515625 5.51933594 3.8409375 4.89414063 3.1875 4.25 C2.58292969 3.65703125 1.97835938 3.0640625 1.35546875 2.453125 C0 1 0 1 0 0 Z " fill="#F5BF56" transform="translate(1886,2542)"/>
<path d="M0 0 C0.66 0 1.32 0 2 0 C1.01 4.95 0.02 9.9 -1 15 C-1.66 15 -2.32 15 -3 15 C-3 16.98 -3 18.96 -3 21 C-3.66 21 -4.32 21 -5 21 C-4.42351925 13.64987044 -2.28953836 6.98575424 0 0 Z " fill="#A3AF58" transform="translate(3371,2110)"/>
<path d="M0 0 C0.33 0 0.66 0 1 0 C1.02685095 2.47923801 1.04676547 4.9581884 1.0625 7.4375 C1.07087891 8.14455078 1.07925781 8.85160156 1.08789062 9.58007812 C1.09653588 11.38693559 1.05220011 13.19387603 1 15 C0.67 15.33 0.34 15.66 0 16 C-0.23363881 17.84891946 -0.41303635 19.70488031 -0.5625 21.5625 C-0.64628906 22.57441406 -0.73007813 23.58632812 -0.81640625 24.62890625 C-0.87699219 25.41136719 -0.93757813 26.19382812 -1 27 C-1.33 27 -1.66 27 -2 27 C-2 22.05 -2 17.1 -2 12 C-1.34 12 -0.68 12 0 12 C0 8.04 0 4.08 0 0 Z " fill="#C9D387" transform="translate(1611,2024)"/>
<path d="M0 0 C0.66 0 1.32 0 2 0 C2.53341184 1.57914015 3.05125763 3.16354387 3.5625 4.75 C3.85253906 5.63171875 4.14257812 6.5134375 4.44140625 7.421875 C5.01697435 10.07834316 4.89248371 11.47031106 4 14 C4 13.01 4 12.02 4 11 C3.34 11 2.68 11 2 11 C0.19769832 7.17010894 -0.19622241 4.21878192 0 0 Z " fill="#B5AB52" transform="translate(3212,1867)"/>
<path d="M0 0 C1.32 1.32 2.64 2.64 4 4 C2.25 7.875 2.25 7.875 0 9 C-1.4606285 6.35261084 -2 5.10551666 -2 2 C-1.34 2 -0.68 2 0 2 C0 1.34 0 0.68 0 0 Z " fill="#DEBF51" transform="translate(3284,1467)"/>
<path d="M0 0 C2.03219488 3.40351338 2.36891039 6.3232927 2.625 10.25 C2.69976563 11.32765625 2.77453125 12.4053125 2.8515625 13.515625 C2.92503906 14.74539063 2.92503906 14.74539063 3 16 C2.01 15.34 1.02 14.68 0 14 C-0.29296875 10.7421875 -0.29296875 10.7421875 -0.1875 6.875 C-0.16042969 5.59367187 -0.13335938 4.31234375 -0.10546875 2.9921875 C-0.07066406 2.00476562 -0.03585938 1.01734375 0 0 Z " fill="#ADBB5D" transform="translate(3405,1781)"/>
<path d="M0 0 C2.18742014 3.2811302 2.54442806 5.33084356 3.125 9.1875 C3.37636719 10.81751953 3.37636719 10.81751953 3.6328125 12.48046875 C3.75398438 13.31191406 3.87515625 14.14335938 4 15 C3.01 14.67 2.02 14.34 1 14 C0.67 9.38 0.34 4.76 0 0 Z " fill="#B7B359" transform="translate(3221,1896)"/>
<path d="M0 0 C0.33 0 0.66 0 1 0 C2.67357513 5.28497409 2.67357513 5.28497409 3 8 C1.625 10.5 1.625 10.5 0 12 C-1.1671568 8.49852959 -1.13357453 5.67329964 -1 2 C-0.67 1.34 -0.34 0.68 0 0 Z " fill="#CCBC5B" transform="translate(3409,1806)"/>
<path d="M0 0 C0.66 0 1.32 0 2 0 C2.39063507 1.43333021 2.76198474 2.87192679 3.125 4.3125 C3.33382812 5.11300781 3.54265625 5.91351562 3.7578125 6.73828125 C4 9 4 9 2 12 C0.86235649 7.73383684 0 4.43513689 0 0 Z " fill="#AFA959" transform="translate(3163,1872)"/>
<path d="M0 0 C0.66 0 1.32 0 2 0 C2.66 2.97 3.32 5.94 4 9 C3.01 8.67 2.02 8.34 1 8 C0.67 5.36 0.34 2.72 0 0 Z " fill="#B2B94F" transform="translate(3378,1674)"/>
<path d="M0 0 C2.45823172 3.68734758 3.01242616 6.69699971 4 11 C3.01 10.67 2.02 10.34 1 10 C0.22157062 6.59437148 -0.09978121 3.49234244 0 0 Z " fill="#B4BF5D" transform="translate(3370,1646)"/>
<path d="M0 0 C3.91402949 1.26941497 5.79072873 2.51167694 8 6 C5 6 5 6 3.61328125 4.6875 C2.40885417 3.125 1.20442708 1.5625 0 0 Z " fill="#FBB73D" transform="translate(1886,2542)"/>
</svg>
